<svg xmlns="http://www.w3.org/2000/svg" viewBox="0 0 877.21 113.53"><defs><style>.cls-1{fill:#a02121;}.cls-2{font-size:52.09px;}.cls-2,.cls-6{font-family:Audiowide-Regular, Audiowide;}.cls-3{letter-spacing:0em;}.cls-4{letter-spacing:-0.02em;}.cls-5{letter-spacing:-0.02em;}.cls-6{font-size:29.47px;}.cls-7{letter-spacing:0em;}.cls-8{letter-spacing:-0.02em;}.cls-9{letter-spacing:-0.01em;}.cls-10{letter-spacing:-0.01em;}.cls-11{letter-spacing:0em;}</style></defs><g id="Calque_2" data-name="Calque 2"><g id="Calque_1-2" data-name="Calque 1"><polygon class="cls-1" points="700.69 111.87 170.71 111.87 347.23 0 877.21 0 700.69 111.87"/><polygon class="cls-1" points="141.59 111.87 82.45 111.87 258.97 0 318.1 0 141.59 111.87"/><polygon class="cls-1" points="59.13 111.87 0 111.87 176.52 0 235.65 0 59.13 111.87"/><text class="cls-2" transform="translate(382.82 48.59)"><tspan class="cls-3">H</tspan><tspan x="44.05" y="0">e</tspan><tspan class="cls-4" x="78.08" y="0">v</tspan><tspan x="112.41" y="0">a Sna</tspan><tspan class="cls-5" x="274.22" y="0">k</tspan><tspan x="309.34" y="0">e</tspan></text><text class="cls-6" transform="translate(245.45 105.12)"><tspan class="cls-7">H</tspan><tspan x="24.95" y="0">ac</tspan><tspan class="cls-8" x="62.36" y="0">k</tspan><tspan x="82.23" y="0">euse - </tspan><tspan class="cls-9" x="194.91" y="0">C</tspan><tspan x="216.77" y="0">ybe</tspan><tspan class="cls-10" x="277.08" y="0">r</tspan><tspan x="292.92" y="0" xml:space="preserve"> Sécuri</tspan><tspan class="cls-11" x="406.83" y="0">t</tspan><tspan x="423.37" y="0">é</tspan></text></g></g></svg>