<svg xmlns="http://www.w3.org/2000/svg" viewBox="0 0 358.31 33.96"><defs><style>.cls-1{fill:#a02121;}</style></defs><g id="Calque_2" data-name="Calque 2"><g id="Calque_1-2" data-name="Calque 1"><polygon class="cls-1" points="311.8 33.96 51.81 33.96 98.33 0.09 358.31 0.09 311.8 33.96"/><polygon class="cls-1" points="38.66 33.87 24.39 33.87 70.9 0 85.17 0 38.66 33.87"/><polygon class="cls-1" points="14.27 33.87 0 33.87 46.52 0 60.79 0 14.27 33.87"/><path d="M169.23,23.47a23.15,23.15,0,0,1-2,1.48,23.61,23.61,0,0,1-2.51,1.47A20.81,20.81,0,0,1,162,27.55a8.67,8.67,0,0,1-2.65.45h-14.2a1,1,0,0,1-.58-.14.39.39,0,0,1-.13-.4,1.43,1.43,0,0,1,.31-.6,4.67,4.67,0,0,1,.74-.74L165.4,9.25a7.93,7.93,0,0,1,1-.73,10,10,0,0,1,1.11-.61,7.9,7.9,0,0,1,1.07-.4,3.68,3.68,0,0,1,.92-.14H182a2.75,2.75,0,0,1,1.19.24.94.94,0,0,1,.55.79,2.4,2.4,0,0,1-.52,1.4,11,11,0,0,1-2.05,2.11l-.83.71c-.78.66-1.73,1.37-2.85,2.14a38,38,0,0,1-3.62,2.16,1.68,1.68,0,0,1,.08.94,3.92,3.92,0,0,1-.52,1.26,11.13,11.13,0,0,1-1.26,1.63,23.83,23.83,0,0,1-2.12,2Zm-2.89-.72a9.73,9.73,0,0,0,1.33-1.32,2.5,2.5,0,0,0,.53-1,.6.6,0,0,0-.25-.64,1.93,1.93,0,0,0-1.06-.22h-8.44l4.45-3.77h6.75a6.25,6.25,0,0,0,1.59-.22,11.41,11.41,0,0,0,1.76-.64,16.53,16.53,0,0,0,1.83-1,17.65,17.65,0,0,0,1.77-1.32l.83-.71c.64-.53.7-.8.18-.8H167L151.42,24.26h12.35l.26,0a1.07,1.07,0,0,0,.36-.08,2.84,2.84,0,0,0,.49-.25,4.89,4.89,0,0,0,.65-.47Z"/><path d="M188.86,22.85a27.17,27.17,0,0,1-2.26,1.68,28.06,28.06,0,0,1-2.85,1.67,21.09,21.09,0,0,1-3.12,1.28,9.63,9.63,0,0,1-3,.52h-6.74a3.2,3.2,0,0,1-1.36-.27,1,1,0,0,1-.62-.89,2.77,2.77,0,0,1,.6-1.6,12.26,12.26,0,0,1,2.31-2.39,24.18,24.18,0,0,1,2.26-1.68,25,25,0,0,1,2.86-1.68,22.28,22.28,0,0,1,3.12-1.29,9.87,9.87,0,0,1,3-.52h6.75l-4.21,3.57h-6.75a4.1,4.1,0,0,0-1.73.47,8.45,8.45,0,0,0-1.79,1.16c-.57.49-.86.87-.86,1.14s.22.41.66.41h6.72a4,4,0,0,0,1.72-.46,8.6,8.6,0,0,0,1.78-1.15l6.16-5.22c.58-.49.89-.88.92-1.17s-.17-.43-.63-.43h-8.22l4.2-3.55H196a3.19,3.19,0,0,1,1.35.27,1,1,0,0,1,.62.89,2.72,2.72,0,0,1-.59,1.59,12.28,12.28,0,0,1-2.31,2.4Z"/><path d="M201,28H190.89a3.33,3.33,0,0,1-1.38-.27,1,1,0,0,1-.64-.9,2.85,2.85,0,0,1,.61-1.63,13.2,13.2,0,0,1,2.37-2.45l6-5.07c.42-.35.9-.73,1.45-1.12s1.13-.78,1.76-1.17,1.3-.76,2-1.12a21.66,21.66,0,0,1,2.1-.93,15.47,15.47,0,0,1,2.11-.65,9,9,0,0,1,2-.24H219.4L215,16.19H204.84a3.77,3.77,0,0,0-1.56.37,7.88,7.88,0,0,0-1.74,1.15l-5.95,5c-.57.49-.89.86-.93,1.12s.18.39.68.39h10.11Z"/><path d="M207.93,28h-3.75L230.31,5.87h3.74Zm14.47,0H217l1.05-7.28q0-.57,1.11-1.44a8.85,8.85,0,0,1,1.1-.75,8.4,8.4,0,0,1,1.2-.6l13.34-5.51h6l-17.18,7.09Z"/></g></g></svg>