<svg xmlns="http://www.w3.org/2000/svg" viewBox="0 0 1047.49 595.81"><defs><style>.cls-1{fill:#a02121;}.cls-2{font-size:55.94px;fill:#fff;}.cls-11,.cls-2,.cls-7{font-family:Audiowide-Regular, Audiowide;}.cls-3{letter-spacing:0em;}.cls-4{letter-spacing:0em;}.cls-5{letter-spacing:-0.02em;}.cls-6{letter-spacing:0em;}.cls-7{font-size:52.09px;}.cls-8{letter-spacing:0em;}.cls-9{letter-spacing:-0.01em;}.cls-10{letter-spacing:0em;}.cls-11{font-size:39px;}.cls-12{letter-spacing:0em;}.cls-13{letter-spacing:0em;}.cls-14{letter-spacing:0em;}.cls-15{letter-spacing:0em;}.cls-16{letter-spacing:-0.01em;}.cls-17{letter-spacing:0em;}.cls-18{letter-spacing:-0.01em;}.cls-19{letter-spacing:-0.02em;}.cls-20{letter-spacing:-0.02em;}.cls-21{letter-spacing:-0.01em;}</style></defs><g id="Calque_2" data-name="Calque 2"><g id="Calque_1-2" data-name="Calque 1"><rect class="cls-1" x="95.49" y="568.12" width="24.26" height="24.26" transform="translate(-192.73 72.25) rotate(-20.09)"/><text class="cls-2" transform="translate(132.85 130.09)"><tspan class="cls-3">I</tspan><tspan class="cls-4" x="15.27" y="0">de</tspan><tspan class="cls-5" x="90.99" y="0">n</tspan><tspan x="129.07" y="0">ti</tspan><tspan class="cls-6" x="174.61" y="0">t</tspan><tspan x="206.02" y="0">é</tspan></text><rect class="cls-1" x="959.44" y="66.25" width="74.43" height="74.43" transform="translate(81.79 512.19) rotate(-30)"/><rect class="cls-1" x="94.31" y="508.59" width="41.42" height="41.42" transform="translate(-249.24 128.42) rotate(-30)"/><rect class="cls-1" x="173.47" y="470.25" width="32.09" height="32.09" transform="translate(-155.48 94.66) rotate(-20.09)"/><polygon class="cls-1" points="814.32 248.4 874.5 287.06 945.74 176.16 834.84 104.93 814.32 136.88 814.32 61.27 291.21 61.27 299.85 52.63 247.22 0 194.59 52.63 203.23 61.27 112.79 61.27 93.09 27.15 0 80.89 53.74 173.98 85.03 155.91 85.03 457.27 731.33 457.27 713.55 488.07 827.7 553.97 893.6 439.82 814.32 394.05 814.32 248.4"/><polygon points="395.15 434.04 115.02 434.04 136.02 422.43 416.15 422.43 395.15 434.04"/><polygon points="601.1 90.81 320.97 90.81 341.97 79.2 622.1 79.2 601.1 90.81"/><polygon points="495.28 434.04 480.97 434.04 501.97 422.43 516.28 422.43 495.28 434.04"/><polygon points="475.49 434.04 461.18 434.04 482.18 422.43 496.49 422.43 475.49 434.04"/><polygon points="653.8 90.81 639.49 90.81 660.49 79.2 674.8 79.2 653.8 90.81"/><polygon points="629.3 90.81 614.99 90.81 635.99 79.2 650.3 79.2 629.3 90.81"/><polygon points="782.1 434.04 501.97 434.04 522.97 422.43 803.1 422.43 782.1 434.04"/><text class="cls-7" transform="translate(148.82 155.24)"><tspan class="cls-8">H</tspan><tspan x="44.05" y="0">ene</tspan><tspan class="cls-9" x="148.38" y="0">l</tspan><tspan x="164.37" y="0"> </tspan><tspan class="cls-10" x="181.31" y="0">A</tspan><tspan x="224.62" y="0">emue</tspan></text><text class="cls-11" transform="translate(149.68 211.67)">20 mars 20<tspan class="cls-12" x="260.43" y="0">5</tspan><tspan x="289.51" y="0">7 - 24</tspan><tspan class="cls-12" x="421.68" y="0"> </tspan><tspan x="434.18" y="0">ans</tspan></text><text class="cls-11" transform="translate(149.68 291.22)"><tspan class="cls-13">J</tspan><tspan x="28.55" y="0">aponaise Améri</tspan><tspan class="cls-14" x="354.65" y="0">c</tspan><tspan x="378.55" y="0">aine</tspan><tspan class="cls-15" x="0" y="46.8">f</tspan><tspan x="21.39" y="46.8">emme - </tspan><tspan class="cls-13" x="188.14" y="46.8">H</tspan><tspan x="221.16" y="46.8">umaine modifie</tspan><tspan class="cls-16" x="536.29" y="46.8">r</tspan><tspan x="0" y="93.61">In</tspan><tspan class="cls-15" x="37.94" y="93.61">f</tspan><tspan class="cls-17" x="59.32" y="93.61">orm</tspan><tspan class="cls-15" x="141.27" y="93.61">a</tspan><tspan class="cls-17" x="166.68" y="93.61">ticienne O</tspan><tspan class="cls-18" x="383.75" y="93.61">-</tspan><tspan class="cls-19" x="405.78" y="93.61">W</tspan><tspan x="444.15" y="93.61">al</tspan><tspan class="cls-20" x="481.86" y="93.61">k</tspan><tspan x="508.16" y="93.61">e</tspan><tspan class="cls-21" x="533.64" y="93.61">r</tspan></text></g></g></svg>