<svg xmlns="http://www.w3.org/2000/svg" viewBox="0 0 117.69 177.19"><defs><style>.cls-1{fill:#a02121;}</style></defs><g id="Calque_2" data-name="Calque 2"><g id="Calque_1-2" data-name="Calque 1"><path class="cls-1" d="M20.23,62.15c0-12.22-.29-10.87.06-22.51.76-25.93,23.5-44,48.36-38.72,17,3.61,30,17.94,31.15,35.29.7,10.79.28,8.65.36,19.48,0,2,0,4,0,5.61.62.55.87,1,1.11,1,11-.21,16.65,5.78,16.4,18.73-.51,26.65-.15,53.32-.15,80,0,11.43-4.7,16.22-16,16.22q-43,0-86,0C4.93,177.18,0,172.27,0,161.58q0-41,0-82C0,67.13,4.15,62.92,16.7,62.5,17.66,62.47,18.62,62.31,20.23,62.15Zm64.35.07c0-13.09.55-12.58-.16-25-.69-11.92-11.07-21.11-23-21.75s-24,7.73-25.1,19.72c-1.24,13.14-.28,13.49-.28,27ZM51.64,129c0,3.88-.15,6.39,0,8.87.33,4.29,2.86,6.87,7.08,6.91s6.81-2.58,7.11-6.85a104.83,104.83,0,0,0,.08-10.49c-.1-3.71.33-6.75,3.42-9.75,5.11-5,4.37-13.37-.71-18.49a13.83,13.83,0,0,0-18.62-1c-5.63,4.61-7.43,13-2.71,18.27C51.2,120.69,52.32,125,51.64,129Z"/></g></g></svg>