<svg xmlns="http://www.w3.org/2000/svg" viewBox="0 0 2341.02 1113.15"><defs><style>.cls-1{fill:#a02121;}</style></defs><g id="Calque_2" data-name="Calque 2"><g id="Calque_1-2" data-name="Calque 1"><polygon class="cls-1" points="700.33 1103.93 696.2 1113.14 1200.04 1113.14 1204.17 1103.93 700.33 1103.93"/><polygon class="cls-1" points="9.21 1103.93 9.21 9.22 648.43 9.22 654.27 0 0 0 0 1113.14 508.97 1113.14 513.1 1103.93 9.21 1103.93"/><polygon class="cls-1" points="1553.04 9.22 1558.88 0 720.93 0 715.1 9.22 777.54 9.22 1553.04 9.22"/><polygon class="cls-1" points="1771.64 0 1765.81 9.22 2331.8 9.22 2331.8 363.31 2341.02 352.32 2341.02 0 1771.64 0"/><polygon class="cls-1" points="2331.8 723.71 2341.02 714.49 2341.02 417.01 2331.8 428 2331.8 723.71"/><polygon class="cls-1" points="2331.8 1103.93 1582.41 1103.93 1578.28 1113.14 2341.02 1113.14 2341.02 823.27 2331.8 832.49 2331.8 1103.93"/><path class="cls-1" d="M2331.8,831v1.46l9.22-9.22v-.21c-2.46,2.12-5,4.17-7.55,6.2C2332.93,829.86,2332.37,830.45,2331.8,831Z"/></g></g></svg>