<svg xmlns="http://www.w3.org/2000/svg" viewBox="0 0 1047.49 595.81"><defs><style>.cls-1{fill:#a02121;}.cls-2{font-size:55.94px;fill:#fff;font-family:Audiowide-Regular, Audiowide;}.cls-3{letter-spacing:0em;}.cls-4{letter-spacing:0em;}.cls-5{letter-spacing:-0.02em;}.cls-6{letter-spacing:0em;}</style></defs><g id="Calque_2" data-name="Calque 2"><g id="Calque_1-2" data-name="Calque 1"><rect class="cls-1" x="95.49" y="568.12" width="24.26" height="24.26" transform="translate(-192.73 72.25) rotate(-20.09)"/><text class="cls-2" transform="translate(132.85 130.09)"><tspan class="cls-3">I</tspan><tspan class="cls-4" x="15.27" y="0">de</tspan><tspan class="cls-5" x="90.99" y="0">n</tspan><tspan x="129.07" y="0">ti</tspan><tspan class="cls-6" x="174.61" y="0">t</tspan><tspan x="206.02" y="0">é</tspan></text><rect class="cls-1" x="959.44" y="66.25" width="74.43" height="74.43" transform="translate(81.79 512.19) rotate(-30)"/><rect class="cls-1" x="94.31" y="508.59" width="41.42" height="41.42" transform="translate(-249.24 128.42) rotate(-30)"/><rect class="cls-1" x="173.47" y="470.25" width="32.09" height="32.09" transform="translate(-155.48 94.66) rotate(-20.09)"/><polygon class="cls-1" points="814.32 248.4 874.5 287.06 945.74 176.16 834.84 104.93 814.32 136.88 814.32 61.27 291.21 61.27 299.85 52.63 247.22 0 194.59 52.63 203.23 61.27 112.79 61.27 93.09 27.15 0 80.89 53.74 173.98 85.03 155.91 85.03 457.27 731.33 457.27 713.55 488.07 827.7 553.97 893.6 439.82 814.32 394.05 814.32 248.4"/><polygon points="395.15 434.04 115.02 434.04 136.02 422.43 416.15 422.43 395.15 434.04"/><polygon points="601.1 90.81 320.97 90.81 341.97 79.2 622.1 79.2 601.1 90.81"/><polygon points="495.28 434.04 480.97 434.04 501.97 422.43 516.28 422.43 495.28 434.04"/><polygon points="475.49 434.04 461.18 434.04 482.18 422.43 496.49 422.43 475.49 434.04"/><polygon points="653.8 90.81 639.49 90.81 660.49 79.2 674.8 79.2 653.8 90.81"/><polygon points="629.3 90.81 614.99 90.81 635.99 79.2 650.3 79.2 629.3 90.81"/><polygon points="782.1 434.04 501.97 434.04 522.97 422.43 803.1 422.43 782.1 434.04"/><path d="M159.33,133.67h23.22v-14.9h6.61v36.47h-6.61v-14.9H159.33v14.9h-6.62V118.77h6.62Z"/><path d="M225.55,136.85a10.25,10.25,0,0,1-.48,3,8.74,8.74,0,0,1-1.56,2.95,8.62,8.62,0,0,1-2.83,2.28,9,9,0,0,1-4.23.92H204.52v-6.29h11.93a2.63,2.63,0,0,0,2.08-.82,2.94,2.94,0,0,0,.74-2,2.58,2.58,0,0,0-.82-2,2.88,2.88,0,0,0-2-.74H204.52a2.63,2.63,0,0,0-2.08.82,3,3,0,0,0-.74,2.05v9.23a2.6,2.6,0,0,0,.82,2.06,3,3,0,0,0,2,.74h11.88v6.31H204.52a10.3,10.3,0,0,1-3-.48,9.05,9.05,0,0,1-2.95-1.57,8.68,8.68,0,0,1-2.28-2.82,9,9,0,0,1-.91-4.24v-9.28a10.3,10.3,0,0,1,.48-3,8.74,8.74,0,0,1,1.56-2.95,8.62,8.62,0,0,1,2.83-2.28,9,9,0,0,1,4.23-.91h11.93a10.3,10.3,0,0,1,3,.48,8.84,8.84,0,0,1,3,1.56,8.72,8.72,0,0,1,2.28,2.83A9,9,0,0,1,225.55,136.85Z"/><path d="M260.47,155.24h-6.61V140a5.94,5.94,0,0,0-.44-2.33,5.62,5.62,0,0,0-1.21-1.77,5.39,5.39,0,0,0-1.8-1.13,6.17,6.17,0,0,0-2.22-.39H236.62v20.88H230V131a3.18,3.18,0,0,1,1-2.33,3.36,3.36,0,0,1,2.37-.95h14.9a13,13,0,0,1,2.63.28,12,12,0,0,1,2.75.9,12.66,12.66,0,0,1,2.59,1.58,10.06,10.06,0,0,1,2.19,2.31,11.16,11.16,0,0,1,1.51,3.14,13.2,13.2,0,0,1,.56,4Z"/><path d="M295.85,136.85a10.25,10.25,0,0,1-.48,3,9,9,0,0,1-1.57,2.95A8.68,8.68,0,0,1,291,145a9,9,0,0,1-4.23.92H274.82v-6.29h11.93a2.65,2.65,0,0,0,2.08-.82,3,3,0,0,0,.74-2,2.59,2.59,0,0,0-.83-2,2.84,2.84,0,0,0-2-.74H274.82a2.65,2.65,0,0,0-2.09.82,3,3,0,0,0-.74,2.05v9.23a2.61,2.61,0,0,0,.83,2.06,2.92,2.92,0,0,0,2.05.74h11.88v6.31H274.82a10.31,10.31,0,0,1-3-.48,9.05,9.05,0,0,1-3-1.57,8.79,8.79,0,0,1-2.27-2.82,9,9,0,0,1-.92-4.24v-9.28a10,10,0,0,1,.49-3,8.67,8.67,0,0,1,4.38-5.23,9,9,0,0,1,4.24-.91h11.93a10.3,10.3,0,0,1,3,.48,8.84,8.84,0,0,1,3,1.56,8.7,8.7,0,0,1,2.27,2.83A8.87,8.87,0,0,1,295.85,136.85Z"/><path d="M312.38,155.24h-2.95a10.71,10.71,0,0,1-3-.48,9.29,9.29,0,0,1-3-1.59,8.77,8.77,0,0,1-2.32-2.88,9.34,9.34,0,0,1-.91-4.33V116.12h6.61V146a2.58,2.58,0,0,0,.76,1.94,2.69,2.69,0,0,0,1.91.73h2.95Z"/><path d="M369.76,155.24h-6.61v-9H339.9v9h-6.61V137a19.35,19.35,0,0,1,1.37-7.35,17,17,0,0,1,9.59-9.53,19.16,19.16,0,0,1,7.27-1.35h14.91a3.32,3.32,0,0,1,2.36,1,3.38,3.38,0,0,1,1,2.37ZM339.9,139.67h23.25V125.38H351.52c-.2,0-.63,0-1.28.09a13.68,13.68,0,0,0-2.26.44,14.42,14.42,0,0,0-2.71,1.1,9.45,9.45,0,0,0-2.62,2,10.29,10.29,0,0,0-2,3.25,12.65,12.65,0,0,0-.78,4.71Z"/><path d="M406.13,136.85a10,10,0,0,1-.49,3,8.67,8.67,0,0,1-4.38,5.23A9,9,0,0,1,397,146H385.09v-6.29H397a2.65,2.65,0,0,0,2.09-.82,3,3,0,0,0,.74-2,2.59,2.59,0,0,0-.83-2,2.86,2.86,0,0,0-2-.74H385.09a2.65,2.65,0,0,0-2.08.82,3,3,0,0,0-.74,2.05v9.23a2.61,2.61,0,0,0,.83,2.06,2.92,2.92,0,0,0,2,.74H397v6.31H385.09a10.3,10.3,0,0,1-3-.48,9.05,9.05,0,0,1-2.95-1.57,8.66,8.66,0,0,1-2.27-2.82,8.89,8.89,0,0,1-.92-4.24v-9.28a10.3,10.3,0,0,1,.48-3,8.77,8.77,0,0,1,1.57-2.95,8.68,8.68,0,0,1,2.82-2.28,9,9,0,0,1,4.23-.91H397a10.31,10.31,0,0,1,3,.48,8.94,8.94,0,0,1,2.95,1.56,8.83,8.83,0,0,1,2.27,2.83A9,9,0,0,1,406.13,136.85Z"/><path d="M435.12,155.24h-6.61V137a2.64,2.64,0,0,0-.69-2,2.78,2.78,0,0,0-2-.67h-8.6v20.88h-6.61V131a3.18,3.18,0,0,1,1-2.33,3.48,3.48,0,0,1,1.07-.7,3.34,3.34,0,0,1,1.3-.25h11.93a10.18,10.18,0,0,1,3,.48,9.76,9.76,0,0,1,3,1.55v-2h8.95a10.14,10.14,0,0,1,2,.21,10.44,10.44,0,0,1,2.07.68,9.79,9.79,0,0,1,2,1.18,7.65,7.65,0,0,1,1.65,1.75,8.92,8.92,0,0,1,1.15,2.38A10.26,10.26,0,0,1,450,137v18.24h-6.61V137a2.75,2.75,0,0,0-.65-2,2.66,2.66,0,0,0-2-.67h-5.95a10,10,0,0,1,.33,2.64Z"/><path d="M486.14,151.91a3.41,3.41,0,0,1-.26,1.32,3.35,3.35,0,0,1-.69,1.06,3.38,3.38,0,0,1-2.33,1h-15a12.88,12.88,0,0,1-2.6-.28,12.74,12.74,0,0,1-2.74-.9,14.12,14.12,0,0,1-2.6-1.58,10.08,10.08,0,0,1-2.2-2.31,11.81,11.81,0,0,1-1.52-3.15,13.08,13.08,0,0,1-.57-4V127.75h6.61V143a5.72,5.72,0,0,0,.45,2.32,5.26,5.26,0,0,0,1.21,1.77,5.1,5.1,0,0,0,1.79,1.13,6,6,0,0,0,2.22.4h11.58V127.75h6.61Z"/><path d="M521.92,136.85a10.25,10.25,0,0,1-.48,3,8.64,8.64,0,0,1-4.39,5.23,9,9,0,0,1-4.23.92H500.89v-6.29h11.93a2.63,2.63,0,0,0,2.08-.82,2.94,2.94,0,0,0,.74-2,2.55,2.55,0,0,0-.83-2,2.84,2.84,0,0,0-2-.74H500.89a2.63,2.63,0,0,0-2.08.82,3,3,0,0,0-.74,2.05v9.23a2.6,2.6,0,0,0,.82,2.06,2.94,2.94,0,0,0,2.05.74h11.88v6.31H500.89a10.25,10.25,0,0,1-3-.48,9,9,0,0,1-2.95-1.57,8.68,8.68,0,0,1-2.28-2.82,9,9,0,0,1-.91-4.24v-9.28a10.3,10.3,0,0,1,.48-3,8.74,8.74,0,0,1,1.56-2.95,8.62,8.62,0,0,1,2.83-2.28,9,9,0,0,1,4.23-.91h11.93a10.3,10.3,0,0,1,3,.48,8.84,8.84,0,0,1,3,1.56,8.72,8.72,0,0,1,2.28,2.83A9,9,0,0,1,521.92,136.85Z"/><path d="M176.78,211.67H151.7v-9.16a7.37,7.37,0,0,1,.16-1.5,8,8,0,0,1,.51-1.57,6.8,6.8,0,0,1,.88-1.48,5.84,5.84,0,0,1,1.32-1.25,6.56,6.56,0,0,1,1.78-.87,7.61,7.61,0,0,1,2.28-.32h11.16a2,2,0,0,0,1.5-.51,2,2,0,0,0,.48-1.47v-2.19a2.15,2.15,0,0,0-.49-1.53,1.94,1.94,0,0,0-1.45-.51h-15.9v-4.95h15.9a7.64,7.64,0,0,1,2.27.32,6.86,6.86,0,0,1,1.78.87,6.29,6.29,0,0,1,1.32,1.25,7.08,7.08,0,0,1,.9,1.47,7.33,7.33,0,0,1,.68,3v2.23a7,7,0,0,1-.69,3.25,6.8,6.8,0,0,1-1.75,2.15,7,7,0,0,1-2.25,1.2,8,8,0,0,1-2.26.37h-11.2a2.34,2.34,0,0,0-1,.17,1.35,1.35,0,0,0-.56.46,2.22,2.22,0,0,0-.3.64c-.06.25-.11.49-.15.73v4.21h20.13Z"/><path d="M213,200.24a11.62,11.62,0,0,1-.42,3.17,11.3,11.3,0,0,1-1.21,2.77,11.12,11.12,0,0,1-1.85,2.29,11.7,11.7,0,0,1-5,2.82,11.39,11.39,0,0,1-2.91.38h-8.93a11.6,11.6,0,0,1-8-3.2,10.46,10.46,0,0,1-1.84-2.29,10.91,10.91,0,0,1-1.2-2.77,11.24,11.24,0,0,1-.43-3.17v-4.45a11,11,0,0,1,.94-4.61,11.45,11.45,0,0,1,6.17-6,11.2,11.2,0,0,1,4.32-.85h8.93a11.39,11.39,0,0,1,2.91.38,11.75,11.75,0,0,1,2.7,1.09,12.25,12.25,0,0,1,2.33,1.73,11.06,11.06,0,0,1,1.85,2.28,11.46,11.46,0,0,1,1.21,2.77,11.74,11.74,0,0,1,.42,3.18Zm-5-4.45a6.45,6.45,0,0,0-2-4.73,6.1,6.1,0,0,0-2-1.31,6.32,6.32,0,0,0-2.44-.44h-8.93a6.5,6.5,0,0,0-4.49,1.72,6.38,6.38,0,0,0-2,4.76v4.45a6.66,6.66,0,0,0,.53,2.69,6.29,6.29,0,0,0,3.5,3.35,6.56,6.56,0,0,0,2.45.44h8.93a6.8,6.8,0,0,0,2.65-.49,5.85,5.85,0,0,0,2-1.34,6,6,0,0,0,1.3-2,7.28,7.28,0,0,0,.45-2.6Zm-2.15-3.62a2.38,2.38,0,0,1,.38.9,2.17,2.17,0,0,1,0,1,2.21,2.21,0,0,1-.37.88,2.46,2.46,0,0,1-.71.69l-13.37,8.94a2,2,0,0,1-.67.34,2.74,2.74,0,0,1-.7.09,2.45,2.45,0,0,1-1.16-.28,2.29,2.29,0,0,1-.9-.82,2.38,2.38,0,0,1-.38-.9,2.59,2.59,0,0,1,0-1,2.35,2.35,0,0,1,.35-.87,2.37,2.37,0,0,1,.71-.7l13.4-8.93a2.42,2.42,0,0,1,.91-.38,2.53,2.53,0,0,1,1,0,2.48,2.48,0,0,1,.88.36A2.52,2.52,0,0,1,205.84,192.17Z"/><path d="M248.5,211.67h-4.95V198a2,2,0,0,0-.51-1.47,2.09,2.09,0,0,0-1.53-.51h-6.43v15.64h-5V193.54a2.57,2.57,0,0,1,.19-1,2.37,2.37,0,0,1,.54-.78,2.43,2.43,0,0,1,.8-.53,2.62,2.62,0,0,1,1-.19h8.93a7.59,7.59,0,0,1,2.21.36,7.13,7.13,0,0,1,2.25,1.17v-1.53h6.7a8,8,0,0,1,1.49.16,7.81,7.81,0,0,1,1.55.51,7.43,7.43,0,0,1,1.47.88,5.78,5.78,0,0,1,1.24,1.32,6.69,6.69,0,0,1,.86,1.78,7.3,7.3,0,0,1,.32,2.28v13.66h-4.95V198a2,2,0,0,0-.48-1.47,2,2,0,0,0-1.5-.51h-4.46a7.36,7.36,0,0,1,.25,2Z"/><path d="M285.45,204.85a7.66,7.66,0,0,1-.36,2.22,6.83,6.83,0,0,1-1.17,2.21,6.45,6.45,0,0,1-2.12,1.7,6.72,6.72,0,0,1-3.17.69H269.7a7.66,7.66,0,0,1-2.22-.36,6.64,6.64,0,0,1-2.21-1.17,6.45,6.45,0,0,1-1.7-2.12,6.69,6.69,0,0,1-.69-3.17,7.83,7.83,0,0,1,.36-2.23,6.42,6.42,0,0,1,3.29-3.92,6.69,6.69,0,0,1,3.17-.69h8.93v4.73H269.7a2,2,0,0,0-1.56.62,2.2,2.2,0,0,0-.56,1.53,1.88,1.88,0,0,0,.64,1.51,2.29,2.29,0,0,0,1.52.55h8.89a2,2,0,0,0,1.56-.61,2.2,2.2,0,0,0,.55-1.53V197.9a2,2,0,0,0-.6-1.54,2.1,2.1,0,0,0-1.51-.57H267.76v-4.71h10.87a7.66,7.66,0,0,1,2.22.36,6.83,6.83,0,0,1,2.21,1.17,6.45,6.45,0,0,1,1.7,2.12,6.72,6.72,0,0,1,.69,3.17Z"/><path d="M307.69,196H296.55a2.07,2.07,0,0,0-1.52.51,1.94,1.94,0,0,0-.52,1.47v13.66h-4.95V198a7.29,7.29,0,0,1,.33-2.28,6.4,6.4,0,0,1,.86-1.78,6.05,6.05,0,0,1,1.25-1.32,7.22,7.22,0,0,1,1.48-.88,7.49,7.49,0,0,1,1.56-.51,7.94,7.94,0,0,1,1.47-.16h11.18Z"/><path d="M330.85,204.72a7.73,7.73,0,0,1-.32,2.29,6.92,6.92,0,0,1-.86,1.79,6,6,0,0,1-1.24,1.32A7.43,7.43,0,0,1,327,211a7.77,7.77,0,0,1-1.57.51,8,8,0,0,1-1.49.16H310.49v-4.95h13.37a2,2,0,0,0,1.52-.52,2,2,0,0,0,.52-1.48,1.82,1.82,0,0,0-2-2h-7.68a6.21,6.21,0,0,1-2.78-.57,5.75,5.75,0,0,1-1.85-1.43,5.39,5.39,0,0,1-1-1.85,6.15,6.15,0,0,1-.32-1.85,6.06,6.06,0,0,1,.59-2.79,5.69,5.69,0,0,1,1.49-1.84,5.81,5.81,0,0,1,1.94-1,6.84,6.84,0,0,1,2-.32h12.17V196H316.26a1.65,1.65,0,0,0-.6.09.72.72,0,0,0-.32.23.67.67,0,0,0-.13.3c0,.11,0,.21,0,.32a1.12,1.12,0,0,0,.11.47.53.53,0,0,0,.24.25.8.8,0,0,0,.32.09h8a7,7,0,0,1,3.24.68,6.51,6.51,0,0,1,2.15,1.72,7.12,7.12,0,0,1,1.19,2.26A7.72,7.72,0,0,1,330.85,204.72Z"/><path d="M371.78,211.67H346.7v-9.16a7.82,7.82,0,0,1,.66-3.07,7.27,7.27,0,0,1,.89-1.48,6,6,0,0,1,1.31-1.25,6.86,6.86,0,0,1,1.78-.87,7.73,7.73,0,0,1,2.29-.32h11.16a2,2,0,0,0,1.49-.51,2,2,0,0,0,.49-1.47v-2.19a2.15,2.15,0,0,0-.5-1.53,1.92,1.92,0,0,0-1.44-.51H348.92v-4.95h15.91a7.57,7.57,0,0,1,2.26.32,6.7,6.7,0,0,1,1.78.87,6.11,6.11,0,0,1,1.33,1.25,7.54,7.54,0,0,1,.9,1.47,7.33,7.33,0,0,1,.52,1.56,8,8,0,0,1,.16,1.48v2.23a6.88,6.88,0,0,1-.7,3.25,6.64,6.64,0,0,1-1.74,2.15,7,7,0,0,1-2.26,1.2,7.94,7.94,0,0,1-2.25.37h-11.2a2.34,2.34,0,0,0-1,.17,1.38,1.38,0,0,0-.57.46,2,2,0,0,0-.29.64,6.77,6.77,0,0,0-.15.73v4.21h20.13Z"/><path d="M408,200.24a11.24,11.24,0,0,1-.43,3.17,10.93,10.93,0,0,1-1.21,2.77,11.08,11.08,0,0,1-1.84,2.29,11.85,11.85,0,0,1-2.34,1.72,11.34,11.34,0,0,1-5.61,1.48h-8.93a11.49,11.49,0,0,1-2.93-.38,11.7,11.7,0,0,1-5-2.82,11.08,11.08,0,0,1-1.84-2.29,11.25,11.25,0,0,1-1.62-5.94v-4.45a11,11,0,0,1,.94-4.61,11.36,11.36,0,0,1,6.17-6,11.15,11.15,0,0,1,4.31-.85h8.93a11.47,11.47,0,0,1,5.61,1.47,12.31,12.31,0,0,1,2.34,1.73,11.17,11.17,0,0,1,3.05,5.05,11.36,11.36,0,0,1,.43,3.18Zm-5-4.45a6.45,6.45,0,0,0-1.95-4.73,6,6,0,0,0-2.05-1.31,6.29,6.29,0,0,0-2.44-.44h-8.93a6.46,6.46,0,0,0-2.41.43,6.34,6.34,0,0,0-2.07,1.29,6.24,6.24,0,0,0-1.45,2.06,6.54,6.54,0,0,0-.54,2.7v4.45a6.49,6.49,0,0,0,.53,2.69,6.32,6.32,0,0,0,3.49,3.35,6.6,6.6,0,0,0,2.45.44h8.93a6.85,6.85,0,0,0,2.66-.49,5.94,5.94,0,0,0,2-1.34,5.86,5.86,0,0,0,1.29-2,7.07,7.07,0,0,0,.46-2.6Zm-2.15-3.62a2.38,2.38,0,0,1,.38.9,2.53,2.53,0,0,1,0,1,2.36,2.36,0,0,1-.37.88,2.5,2.5,0,0,1-.72.69l-13.36,8.94a2,2,0,0,1-.67.34,2.82,2.82,0,0,1-.71.09,2.51,2.51,0,0,1-1.16-.28,2.26,2.26,0,0,1-.89-.82A2.5,2.5,0,0,1,383,202a2.19,2.19,0,0,1,.35-.87,2.34,2.34,0,0,1,.7-.7l13.41-8.93a2.35,2.35,0,0,1,.91-.38,2.53,2.53,0,0,1,.95,0,2.37,2.37,0,0,1,.87.36A2.42,2.42,0,0,1,400.84,192.17Z"/><path d="M437.63,204.72a7.12,7.12,0,0,1-.16,1.48,7.6,7.6,0,0,1-.51,1.55,7.81,7.81,0,0,1-.9,1.48,6,6,0,0,1-1.31,1.25,6.54,6.54,0,0,1-1.78.86,7.32,7.32,0,0,1-2.27.33H412.55v-4.95H430.7a1.83,1.83,0,0,0,1.44-.57,2.13,2.13,0,0,0,.5-1.43v-2.21a2.08,2.08,0,0,0-.49-1.49,2,2,0,0,0-1.49-.51H419.5a6.88,6.88,0,0,1-3.25-.7,6.5,6.5,0,0,1-2.14-1.74,7.06,7.06,0,0,1-1.19-2.27,7.66,7.66,0,0,1-.37-2.26v-9.18h22.82v4.95H417.5v4.23A1.93,1.93,0,0,0,418,195a2,2,0,0,0,1.48.5h11.2a7.7,7.7,0,0,1,2.25.37,6.81,6.81,0,0,1,2.25,1.2,6.6,6.6,0,0,1,1.74,2.16,7,7,0,0,1,.69,3.26Z"/><path d="M463,185.62a2.58,2.58,0,0,1,0,2.49l-13.73,23.56h-5.73l13-22.36h-16v-4.95h20.36a2.51,2.51,0,0,1,1.25.33A2.37,2.37,0,0,1,463,185.62Z"/><path d="M497,200.24H479.09v-4.45H497Z"/><path d="M539,211.67H513.87v-9.16A7.37,7.37,0,0,1,514,201a8.65,8.65,0,0,1,.5-1.57,7.27,7.27,0,0,1,.89-1.48,6,6,0,0,1,1.31-1.25,6.86,6.86,0,0,1,1.78-.87,7.73,7.73,0,0,1,2.29-.32H532a2,2,0,0,0,1.49-.51,2,2,0,0,0,.49-1.47v-2.19a2.15,2.15,0,0,0-.5-1.53,1.92,1.92,0,0,0-1.44-.51H516.1v-4.95H532a7.52,7.52,0,0,1,2.26.32,6.56,6.56,0,0,1,1.78.87,6.11,6.11,0,0,1,1.33,1.25,7.08,7.08,0,0,1,.9,1.47,7.33,7.33,0,0,1,.52,1.56,8,8,0,0,1,.16,1.48v2.23a6.88,6.88,0,0,1-.7,3.25,6.64,6.64,0,0,1-1.74,2.15,7,7,0,0,1-2.26,1.2,7.88,7.88,0,0,1-2.25.37H520.8a2.34,2.34,0,0,0-1,.17,1.35,1.35,0,0,0-.56.46,1.8,1.8,0,0,0-.3.64c-.06.25-.11.49-.15.73v4.21H539Z"/><path d="M568.33,211.67h-5V200.51h-17.6a2.47,2.47,0,0,1-1-.2,2.44,2.44,0,0,1-1.32-1.33,2.58,2.58,0,0,1-.19-1V184.36h5v11.16h15.15V184.36h5Z"/><path d="M607.43,204.85a7.66,7.66,0,0,1-.36,2.22,6.64,6.64,0,0,1-1.17,2.21,6.4,6.4,0,0,1-2.11,1.7,6.72,6.72,0,0,1-3.17.69h-8.94a7.76,7.76,0,0,1-2.22-.36,6.5,6.5,0,0,1-2.2-1.17,6.6,6.6,0,0,1-1.71-2.12,6.69,6.69,0,0,1-.68-3.17,7.83,7.83,0,0,1,.36-2.23,6.45,6.45,0,0,1,3.28-3.92,6.72,6.72,0,0,1,3.17-.69h8.94v4.73h-8.94a2,2,0,0,0-1.56.62,2.2,2.2,0,0,0-.55,1.53,1.85,1.85,0,0,0,.64,1.51,2.26,2.26,0,0,0,1.51.55h8.9a2,2,0,0,0,1.56-.61,2.24,2.24,0,0,0,.55-1.53V197.9a2,2,0,0,0-.6-1.54,2.12,2.12,0,0,0-1.51-.57H589.74v-4.71h10.88a7.65,7.65,0,0,1,2.21.36,6.73,6.73,0,0,1,2.21,1.17,6.6,6.6,0,0,1,1.71,2.12,6.84,6.84,0,0,1,.68,3.17Z"/><path d="M634.48,211.67h-5V200.24a4.35,4.35,0,0,0-.33-1.74,3.87,3.87,0,0,0-.9-1.32,3.92,3.92,0,0,0-1.35-.85,4.53,4.53,0,0,0-1.66-.3h-8.67v15.64h-5V193.54a2.38,2.38,0,0,1,.19-1,2.5,2.5,0,0,1,.53-.78,2.54,2.54,0,0,1,.8-.53,2.67,2.67,0,0,1,1-.19h11.16a10,10,0,0,1,2,.21,9.48,9.48,0,0,1,2.05.68,9.84,9.84,0,0,1,1.95,1.18,7.7,7.7,0,0,1,1.63,1.73,8.42,8.42,0,0,1,1.14,2.35,10,10,0,0,1,.42,3Z"/><path d="M658.72,204.72a7.73,7.73,0,0,1-.32,2.29,6.92,6.92,0,0,1-.86,1.79,6,6,0,0,1-1.24,1.32,7.22,7.22,0,0,1-1.48.88,7.49,7.49,0,0,1-1.56.51,8,8,0,0,1-1.49.16H638.36v-4.95h13.37a2,2,0,0,0,1.52-.52,2,2,0,0,0,.52-1.48,1.82,1.82,0,0,0-2-2h-7.68a6.18,6.18,0,0,1-2.78-.57,5.75,5.75,0,0,1-1.85-1.43,5.39,5.39,0,0,1-1-1.85,6.15,6.15,0,0,1-.32-1.85,6.06,6.06,0,0,1,.59-2.79,5.69,5.69,0,0,1,1.49-1.84,5.81,5.81,0,0,1,1.94-1,6.84,6.84,0,0,1,2-.32h12.17V196H644.13a1.65,1.65,0,0,0-.6.09.72.72,0,0,0-.32.23.67.67,0,0,0-.13.3c0,.11,0,.21,0,.32a1.28,1.28,0,0,0,.12.47.53.53,0,0,0,.24.25.8.8,0,0,0,.32.09h8a7,7,0,0,1,3.24.68,6.62,6.62,0,0,1,2.15,1.72,7.12,7.12,0,0,1,1.19,2.26A7.72,7.72,0,0,1,658.72,204.72Z"/><path d="M175.52,284.27A7.36,7.36,0,0,1,175,287a6.51,6.51,0,0,1-1.44,2.21,6.39,6.39,0,0,1-2.2,1.45,7.25,7.25,0,0,1-2.78.53H150.44v-5h18.15a1.91,1.91,0,0,0,1.43-.53,2,2,0,0,0,.51-1.47V263.91h5Z"/><path d="M201.81,284.4a7.69,7.69,0,0,1-.37,2.22,6.64,6.64,0,0,1-1.17,2.21,6.4,6.4,0,0,1-2.11,1.7,6.72,6.72,0,0,1-3.17.69h-8.93a7.66,7.66,0,0,1-2.22-.36,6.76,6.76,0,0,1-2.21-1.18,6.45,6.45,0,0,1-1.71-2.11,6.84,6.84,0,0,1-.68-3.17,7.78,7.78,0,0,1,.36-2.23,6.45,6.45,0,0,1,3.28-3.92,6.73,6.73,0,0,1,3.18-.69H195v4.73h-8.93a2,2,0,0,0-1.57.61,2.29,2.29,0,0,0-.55,1.54,1.85,1.85,0,0,0,.64,1.51,2.26,2.26,0,0,0,1.51.54H195a2,2,0,0,0,1.56-.6,2.2,2.2,0,0,0,.55-1.53v-6.91a2,2,0,0,0-.6-1.54,2.11,2.11,0,0,0-1.51-.58H184.11v-4.7H195a7.76,7.76,0,0,1,2.22.36,6.64,6.64,0,0,1,2.21,1.17,6.52,6.52,0,0,1,2.39,5.29Z"/><path d="M228.73,284.27a7.41,7.41,0,0,1-.32,2.29,6.61,6.61,0,0,1-.86,1.79,5.74,5.74,0,0,1-1.23,1.32,7.5,7.5,0,0,1-1.48.88,7.6,7.6,0,0,1-1.55.51,8,8,0,0,1-1.49.16h-8.93v-5h8.93a2,2,0,0,0,1.49-.52,2.05,2.05,0,0,0,.49-1.48V277.6a2.08,2.08,0,0,0-.5-1.52,2,2,0,0,0-1.48-.5h-8.89a2.11,2.11,0,0,0-1.53.51,2,2,0,0,0-.51,1.47v20.09h-5V277.56a7.61,7.61,0,0,1,.32-2.28,6.7,6.7,0,0,1,.87-1.78,5.84,5.84,0,0,1,1.25-1.32,7.43,7.43,0,0,1,1.47-.88,7.89,7.89,0,0,1,1.56-.51,8,8,0,0,1,1.48-.16h8.93a7.73,7.73,0,0,1,2.29.32,7.17,7.17,0,0,1,1.78.86,6,6,0,0,1,1.31,1.24,7.27,7.27,0,0,1,.89,1.48,7.56,7.56,0,0,1,.5,1.55,7.12,7.12,0,0,1,.16,1.48Z"/><path d="M255.36,284.27a7.4,7.4,0,0,1-.33,2.29,6.59,6.59,0,0,1-.85,1.79,6,6,0,0,1-1.24,1.32,7.22,7.22,0,0,1-1.48.88,7.49,7.49,0,0,1-1.56.51,8.05,8.05,0,0,1-1.49.16h-8.94a8,8,0,0,1-2.24-.36,6.83,6.83,0,0,1-2.26-1.19,6.68,6.68,0,0,1-1.73-2.16,6.81,6.81,0,0,1-.7-3.24v-6.71a6.75,6.75,0,0,1,.7-3.22,6.52,6.52,0,0,1,4-3.35,8,8,0,0,1,2.24-.36h8.94a6.92,6.92,0,0,1,3.23.69A6.43,6.43,0,0,1,253.8,273,6.92,6.92,0,0,1,255,275.3a8,8,0,0,1,.37,2.26Zm-5-6.67a2,2,0,0,0-.52-1.52,2.05,2.05,0,0,0-1.48-.5h-8.9a2,2,0,0,0-1.5.51,2,2,0,0,0-.52,1.47v6.71a1.82,1.82,0,0,0,2,2h8.9a2,2,0,0,0,1.5-.52,2.05,2.05,0,0,0,.5-1.48Z"/><path d="M282.38,291.22h-4.95V279.79a4.35,4.35,0,0,0-.33-1.74,4,4,0,0,0-.91-1.32,3.83,3.83,0,0,0-1.34-.85,4.55,4.55,0,0,0-1.67-.3h-8.66v15.64h-4.95V273.09a2.46,2.46,0,0,1,.72-1.75,2.69,2.69,0,0,1,.8-.52,2.47,2.47,0,0,1,1-.19h11.16a9.94,9.94,0,0,1,2,.21,9.77,9.77,0,0,1,4,1.86,7.74,7.74,0,0,1,1.64,1.73,8.4,8.4,0,0,1,1.13,2.35,10,10,0,0,1,.42,3Z"/><path d="M308,284.4a7.66,7.66,0,0,1-.36,2.22,6.86,6.86,0,0,1-1.18,2.21,6.4,6.4,0,0,1-2.11,1.7,6.72,6.72,0,0,1-3.17.69h-8.93a7.66,7.66,0,0,1-2.22-.36,6.86,6.86,0,0,1-2.21-1.18,6.3,6.3,0,0,1-1.7-2.11,6.72,6.72,0,0,1-.69-3.17,7.78,7.78,0,0,1,.36-2.23,6.42,6.42,0,0,1,3.29-3.92,6.69,6.69,0,0,1,3.17-.69h8.93v4.73h-8.93a2,2,0,0,0-1.56.61,2.25,2.25,0,0,0-.56,1.54,1.88,1.88,0,0,0,.64,1.51,2.28,2.28,0,0,0,1.52.54h8.89a2,2,0,0,0,1.56-.6,2.2,2.2,0,0,0,.55-1.53v-6.91a2,2,0,0,0-.6-1.54,2.11,2.11,0,0,0-1.51-.58H290.29v-4.7h10.87a7.71,7.71,0,0,1,2.22.36,6.64,6.64,0,0,1,2.21,1.17,6.45,6.45,0,0,1,1.7,2.12,6.69,6.69,0,0,1,.69,3.17Z"/><path d="M317.23,266.4h-5v-4.47h5Zm0,24.82h-5V270.63h5Z"/><path d="M341.88,284.27a7.4,7.4,0,0,1-.33,2.29,6.59,6.59,0,0,1-.85,1.79,6,6,0,0,1-1.24,1.32,7.22,7.22,0,0,1-1.48.88,7.49,7.49,0,0,1-1.56.51,8.05,8.05,0,0,1-1.49.16H321.52v-5h13.37a2.07,2.07,0,0,0,1.52-.52,2,2,0,0,0,.52-1.48,1.82,1.82,0,0,0-2-2h-7.68a6,6,0,0,1-2.78-.58,5.74,5.74,0,0,1-1.86-1.42,5.46,5.46,0,0,1-1-1.85,6.15,6.15,0,0,1-.32-1.85,6.06,6.06,0,0,1,.59-2.79,5.57,5.57,0,0,1,1.49-1.84,5.74,5.74,0,0,1,1.94-1,7.17,7.17,0,0,1,2-.31h12.17v4.95H327.29a1.61,1.61,0,0,0-.6.09.62.62,0,0,0-.32.23.58.58,0,0,0-.13.3c0,.11,0,.21,0,.32a1.11,1.11,0,0,0,.12.47.53.53,0,0,0,.24.25.66.66,0,0,0,.32.08h8a6.94,6.94,0,0,1,3.23.69,6.55,6.55,0,0,1,2.16,1.72,7.12,7.12,0,0,1,1.19,2.26A8.07,8.07,0,0,1,341.88,284.27Z"/><path d="M367.49,277.45a7.76,7.76,0,0,1-.36,2.22,6.47,6.47,0,0,1-3.28,3.91,6.76,6.76,0,0,1-3.18.69h-8.93v-4.71h8.93a2,2,0,0,0,1.57-.62,2.24,2.24,0,0,0,.55-1.53,1.94,1.94,0,0,0-.62-1.52,2.16,2.16,0,0,0-1.5-.56h-8.93a2,2,0,0,0-1.56.62,2.24,2.24,0,0,0-.55,1.54v6.91a1.93,1.93,0,0,0,.62,1.54,2.2,2.2,0,0,0,1.53.55h8.89v4.73h-8.93a7.76,7.76,0,0,1-2.22-.36,6.86,6.86,0,0,1-2.21-1.18,6.56,6.56,0,0,1-1.7-2.11,6.72,6.72,0,0,1-.69-3.17v-6.95a7.36,7.36,0,0,1,.37-2.22,6.64,6.64,0,0,1,1.17-2.21,6.4,6.4,0,0,1,2.11-1.7,6.72,6.72,0,0,1,3.17-.69h8.93a7.66,7.66,0,0,1,2.22.36,6.49,6.49,0,0,1,3.92,3.29A6.81,6.81,0,0,1,367.49,277.45Z"/><path d="M410.86,291.22h-5v-6.71H388.5v6.71h-4.95V277.56a14.29,14.29,0,0,1,1-5.5,12.62,12.62,0,0,1,2.85-4.32,12.94,12.94,0,0,1,4.32-2.82,14.29,14.29,0,0,1,5.45-1h11.16a2.5,2.5,0,0,1,1.77.72,2.57,2.57,0,0,1,.54.8,2.66,2.66,0,0,1,.19,1ZM388.5,279.56h17.4v-10.7h-8.7c-.15,0-.47,0-1,.07a9.31,9.31,0,0,0-1.7.33,10.59,10.59,0,0,0-2,.82,7.19,7.19,0,0,0-2,1.52,8,8,0,0,0-1.47,2.43,9.49,9.49,0,0,0-.58,3.53Z"/><path d="M434.43,291.22h-4.95V277.56a2,2,0,0,0-.51-1.47,2.09,2.09,0,0,0-1.53-.51H421v15.64h-4.95V273.09a2.46,2.46,0,0,1,.72-1.75,2.57,2.57,0,0,1,.8-.52,2.43,2.43,0,0,1,1-.19h8.93a7.59,7.59,0,0,1,2.21.36,7.31,7.31,0,0,1,2.25,1.16v-1.52h6.7a8,8,0,0,1,1.49.16,7.6,7.6,0,0,1,1.55.51,7.5,7.5,0,0,1,1.48.88,5.76,5.76,0,0,1,1.23,1.32,6.69,6.69,0,0,1,.86,1.78,7.3,7.3,0,0,1,.32,2.28v13.66h-4.95V277.56a2,2,0,0,0-.48-1.47,2,2,0,0,0-1.5-.51h-4.45a7.79,7.79,0,0,1,.24,2Z"/><path d="M472.27,277.45a7.76,7.76,0,0,1-.36,2.22,6.64,6.64,0,0,1-1.17,2.21,6.53,6.53,0,0,1-2.11,1.7,6.72,6.72,0,0,1-3.17.69h-8.94v-4.71h8.94a2,2,0,0,0,1.56-.62,2.2,2.2,0,0,0,.55-1.53,1.94,1.94,0,0,0-.62-1.52,2.16,2.16,0,0,0-1.49-.56h-8.94A2,2,0,0,0,455,276a2.24,2.24,0,0,0-.55,1.54v6.91a2,2,0,0,0,.62,1.54,2.2,2.2,0,0,0,1.53.55h8.9v4.73h-8.94a7.65,7.65,0,0,1-2.21-.36,6.76,6.76,0,0,1-2.21-1.18,6.45,6.45,0,0,1-1.71-2.11,6.72,6.72,0,0,1-.68-3.17v-6.95a7.66,7.66,0,0,1,.36-2.22,6.64,6.64,0,0,1,1.17-2.21,6.4,6.4,0,0,1,2.11-1.7,6.72,6.72,0,0,1,3.17-.69h8.94a7.76,7.76,0,0,1,2.22.36,6.51,6.51,0,0,1,3.91,3.29A6.69,6.69,0,0,1,472.27,277.45Zm-1.37-13L461,268l-1.31-2.85,9.16-5.34Z"/><path d="M493.62,275.58H482.48a2.07,2.07,0,0,0-1.52.51,2,2,0,0,0-.52,1.47v13.66h-4.95V277.56a7.29,7.29,0,0,1,.33-2.28,6.4,6.4,0,0,1,.86-1.78,5.84,5.84,0,0,1,1.25-1.32,7.22,7.22,0,0,1,1.48-.88,7.49,7.49,0,0,1,1.56-.51,7.94,7.94,0,0,1,1.47-.16h11.18Z"/><path d="M501.91,266.4h-5v-4.47h5Zm0,24.82h-5V270.63h5Z"/><path d="M526.59,291.22H513.16a8,8,0,0,1-2.24-.36,6.52,6.52,0,0,1-4-3.35,6.81,6.81,0,0,1-.7-3.24v-6.71a7.12,7.12,0,0,1,.16-1.48,7.6,7.6,0,0,1,.51-1.55,7.22,7.22,0,0,1,.88-1.48,5.8,5.8,0,0,1,1.32-1.24,6.85,6.85,0,0,1,1.78-.86,7.61,7.61,0,0,1,2.28-.32h13.43v4.95H513.16a2,2,0,0,0-1.47.5,2,2,0,0,0-.51,1.52v6.67a2,2,0,0,0,.52,1.48,2,2,0,0,0,1.5.52h13.39Z"/><path d="M551.8,284.4a7.66,7.66,0,0,1-.36,2.22,6.64,6.64,0,0,1-1.17,2.21,6.4,6.4,0,0,1-2.11,1.7,6.72,6.72,0,0,1-3.17.69h-8.94a7.65,7.65,0,0,1-2.21-.36,6.76,6.76,0,0,1-2.21-1.18,6.45,6.45,0,0,1-1.71-2.11,6.72,6.72,0,0,1-.68-3.17,7.78,7.78,0,0,1,.36-2.23,6.45,6.45,0,0,1,3.28-3.92,6.72,6.72,0,0,1,3.17-.69H545v4.73h-8.94a2,2,0,0,0-1.56.61,2.24,2.24,0,0,0-.55,1.54,1.85,1.85,0,0,0,.64,1.51,2.26,2.26,0,0,0,1.51.54H545a2,2,0,0,0,1.56-.6,2.2,2.2,0,0,0,.55-1.53v-6.91a2,2,0,0,0-.6-1.54,2.11,2.11,0,0,0-1.51-.58H534.11v-4.7H545a7.65,7.65,0,0,1,2.21.36,6.49,6.49,0,0,1,3.92,3.29,6.69,6.69,0,0,1,.68,3.17Z"/><path d="M561.06,266.4h-4.95v-4.47h4.95Zm0,24.82h-4.95V270.63h4.95Z"/><path d="M588.62,291.22h-5V279.79a4.35,4.35,0,0,0-.33-1.74,3.87,3.87,0,0,0-.9-1.32,3.78,3.78,0,0,0-1.35-.85,4.53,4.53,0,0,0-1.66-.3h-8.67v15.64h-5V273.09a2.32,2.32,0,0,1,.19-1,2.67,2.67,0,0,1,.53-.79,2.62,2.62,0,0,1,.81-.52,2.4,2.4,0,0,1,1-.19h11.16a9.94,9.94,0,0,1,2,.21,9.48,9.48,0,0,1,2.05.68,9.84,9.84,0,0,1,1.95,1.18,7.7,7.7,0,0,1,1.63,1.73,8.42,8.42,0,0,1,1.14,2.35,10,10,0,0,1,.42,3Z"/><path d="M615.11,277.45a7.76,7.76,0,0,1-.36,2.22,6.86,6.86,0,0,1-1.18,2.21,6.43,6.43,0,0,1-2.11,1.7,6.72,6.72,0,0,1-3.17.69h-8.93v-4.71h8.93a2,2,0,0,0,1.56-.62,2.2,2.2,0,0,0,.55-1.53,1.93,1.93,0,0,0-.61-1.52,2.2,2.2,0,0,0-1.5-.56h-8.93a2,2,0,0,0-1.56.62,2.25,2.25,0,0,0-.56,1.54v6.91a2,2,0,0,0,.62,1.54,2.24,2.24,0,0,0,1.54.55h8.89v4.73h-8.93a7.66,7.66,0,0,1-2.22-.36,6.86,6.86,0,0,1-2.21-1.18,6.3,6.3,0,0,1-1.7-2.11,6.72,6.72,0,0,1-.69-3.17v-6.95a7.66,7.66,0,0,1,.36-2.22,6.64,6.64,0,0,1,1.17-2.21,6.45,6.45,0,0,1,2.12-1.7,6.69,6.69,0,0,1,3.17-.69h8.93a7.71,7.71,0,0,1,2.22.36,6.64,6.64,0,0,1,2.21,1.17,6.45,6.45,0,0,1,1.7,2.12A6.69,6.69,0,0,1,615.11,277.45Z"/><path d="M170.23,313.45H159.07a2.07,2.07,0,0,0-1.52.51,2,2,0,0,0-.52,1.47V338h-4.95V315.43a7.61,7.61,0,0,1,.32-2.28,6.7,6.7,0,0,1,.87-1.78,6.05,6.05,0,0,1,1.25-1.32,7.43,7.43,0,0,1,1.47-.88,7.53,7.53,0,0,1,3-.67h11.2Zm0,8.94H159v-5h11.2Z"/><path d="M195.54,324.25a7.66,7.66,0,0,1-.36,2.22,6.64,6.64,0,0,1-1.17,2.21,6.45,6.45,0,0,1-2.12,1.7,6.69,6.69,0,0,1-3.17.69h-8.93v-4.7h8.93a2,2,0,0,0,1.56-.62,2.23,2.23,0,0,0,.56-1.54,2,2,0,0,0-.62-1.52,2.17,2.17,0,0,0-1.5-.55h-8.93a2,2,0,0,0-1.56.62,2.2,2.2,0,0,0-.55,1.53v6.91a2,2,0,0,0,.61,1.55,2.29,2.29,0,0,0,1.54.55h8.89V338h-8.93a7.66,7.66,0,0,1-2.22-.36,6.64,6.64,0,0,1-2.21-1.17,6.45,6.45,0,0,1-1.7-2.12,6.69,6.69,0,0,1-.69-3.17v-6.95a7.76,7.76,0,0,1,.36-2.22,6.83,6.83,0,0,1,1.17-2.21,6.52,6.52,0,0,1,5.29-2.39h8.93a7.69,7.69,0,0,1,2.22.37,6.64,6.64,0,0,1,2.21,1.17,6.4,6.4,0,0,1,1.7,2.11A6.72,6.72,0,0,1,195.54,324.25Z"/><path d="M217.25,338H212.3V324.37a2,2,0,0,0-.52-1.48,2.07,2.07,0,0,0-1.52-.5h-6.44V338h-4.95V319.89a2.57,2.57,0,0,1,.19-1,2.37,2.37,0,0,1,.54-.78,2.31,2.31,0,0,1,.8-.52,2.4,2.4,0,0,1,1-.2h8.93a7.68,7.68,0,0,1,2.21.37,7.31,7.31,0,0,1,2.25,1.16v-1.53h6.7a7.15,7.15,0,0,1,1.48.17,7.25,7.25,0,0,1,1.56.5A7,7,0,0,1,226,319a6,6,0,0,1,1.24,1.31,6.84,6.84,0,0,1,.86,1.78,7.68,7.68,0,0,1,.32,2.29V338h-4.95V324.37a2,2,0,0,0-.49-1.48,2,2,0,0,0-1.49-.5H217a7.36,7.36,0,0,1,.25,2Z"/><path d="M251.32,338h-4.95V324.37a2,2,0,0,0-.52-1.48,2.07,2.07,0,0,0-1.52-.5h-6.44V338h-4.95V319.89a2.57,2.57,0,0,1,.19-1,2.37,2.37,0,0,1,.54-.78,2.4,2.4,0,0,1,.8-.52,2.44,2.44,0,0,1,1-.2h8.93a7.63,7.63,0,0,1,2.21.37,7.2,7.2,0,0,1,2.25,1.16v-1.53h6.7a7.32,7.32,0,0,1,1.49.17,7.17,7.17,0,0,1,1.55.5A7,7,0,0,1,260,319a5.74,5.74,0,0,1,1.24,1.31,6.84,6.84,0,0,1,.86,1.78,7.68,7.68,0,0,1,.32,2.29V338h-4.95V324.37a2,2,0,0,0-.49-1.48,2,2,0,0,0-1.49-.5h-4.46a7.36,7.36,0,0,1,.25,2Z"/><path d="M289.16,324.25a7.66,7.66,0,0,1-.36,2.22,6.64,6.64,0,0,1-1.17,2.21,6.51,6.51,0,0,1-2.11,1.7,6.76,6.76,0,0,1-3.18.69h-8.93v-4.7h8.93a2,2,0,0,0,1.57-.62,2.27,2.27,0,0,0,.55-1.54,2,2,0,0,0-.62-1.52,2.15,2.15,0,0,0-1.5-.55h-8.93a2,2,0,0,0-1.56.62,2.2,2.2,0,0,0-.55,1.53v6.91a2,2,0,0,0,.62,1.55,2.24,2.24,0,0,0,1.53.55h8.89V338h-8.93a7.76,7.76,0,0,1-2.22-.36,6.64,6.64,0,0,1-2.21-1.17,6.52,6.52,0,0,1-2.39-5.29v-6.95A7.46,7.46,0,0,1,267,322a6.47,6.47,0,0,1,3.28-3.91,6.72,6.72,0,0,1,3.17-.69h8.93a7.69,7.69,0,0,1,2.22.37,6.52,6.52,0,0,1,3.92,3.28A6.84,6.84,0,0,1,289.16,324.25Z"/><path d="M322.93,326.59H305.06v-4.45h17.87Z"/><path d="M345.69,321.87h17.38V310.71h5V338h-5V326.86H345.69V338h-5V310.71h5Z"/><path d="M395.68,335.53a2.72,2.72,0,0,1-.19,1,2.39,2.39,0,0,1-.53.79,2.48,2.48,0,0,1-.78.52,2.38,2.38,0,0,1-1,.19H382a9.83,9.83,0,0,1-1.95-.21,9.44,9.44,0,0,1-2.05-.67,11,11,0,0,1-1.95-1.18,7.6,7.6,0,0,1-1.65-1.74,9,9,0,0,1-1.13-2.35,10,10,0,0,1-.43-3V317.43h4.95v11.43a4.19,4.19,0,0,0,.34,1.74,4,4,0,0,0,.9,1.33,3.8,3.8,0,0,0,1.34.84,4.59,4.59,0,0,0,1.67.3h8.67V317.43h4.95Z"/><path d="M418.7,338h-4.95V324.37a2,2,0,0,0-.51-1.48,2.09,2.09,0,0,0-1.53-.5h-6.43V338h-5V319.89a2.57,2.57,0,0,1,.19-1,2.37,2.37,0,0,1,.54-.78,2.4,2.4,0,0,1,.8-.52,2.44,2.44,0,0,1,1-.2h8.93a7.63,7.63,0,0,1,2.21.37,7.1,7.1,0,0,1,2.25,1.16v-1.53h6.7a7.25,7.25,0,0,1,1.49.17,7.17,7.17,0,0,1,1.55.5,7,7,0,0,1,1.47.89,5.74,5.74,0,0,1,1.24,1.31,6.84,6.84,0,0,1,.86,1.78,7.37,7.37,0,0,1,.32,2.29V338h-4.95V324.37a2.08,2.08,0,0,0-.48-1.48,2,2,0,0,0-1.5-.5h-4.46a7.36,7.36,0,0,1,.25,2Z"/><path d="M455.65,331.2a7.66,7.66,0,0,1-.36,2.22,6.49,6.49,0,0,1-3.29,3.92,6.81,6.81,0,0,1-3.17.68H439.9a7.66,7.66,0,0,1-2.22-.36,6.64,6.64,0,0,1-2.21-1.17,6.45,6.45,0,0,1-1.7-2.12,6.69,6.69,0,0,1-.69-3.17,7.76,7.76,0,0,1,.36-2.22,6.47,6.47,0,0,1,3.29-3.93,6.81,6.81,0,0,1,3.17-.68h8.93v4.72H439.9a2,2,0,0,0-1.56.62,2.2,2.2,0,0,0-.55,1.53,1.91,1.91,0,0,0,.63,1.52,2.28,2.28,0,0,0,1.52.54h8.89a2,2,0,0,0,1.56-.61,2.19,2.19,0,0,0,.55-1.52v-6.92a2,2,0,0,0-.6-1.54,2.1,2.1,0,0,0-1.51-.57H438v-4.71h10.87a7.69,7.69,0,0,1,2.22.37,6.64,6.64,0,0,1,2.21,1.17,6.4,6.4,0,0,1,1.7,2.11,6.72,6.72,0,0,1,.69,3.17Z"/><path d="M464.9,313.21H460v-4.48h4.95Zm0,24.81H460V317.43h4.95Z"/><path d="M492.46,338h-4.95V326.59a4.42,4.42,0,0,0-.33-1.74,4.26,4.26,0,0,0-.91-1.32,4,4,0,0,0-1.34-.85,4.58,4.58,0,0,0-1.67-.29H474.6V338h-5V319.89a2.38,2.38,0,0,1,.19-1,2.21,2.21,0,0,1,.53-.78,2.51,2.51,0,0,1,.8-.52,2.44,2.44,0,0,1,1-.2H483.3a9.94,9.94,0,0,1,2,.21,9.77,9.77,0,0,1,4,1.86,8,8,0,0,1,1.64,1.73,8.46,8.46,0,0,1,1.13,2.36,9.93,9.93,0,0,1,.42,3Z"/><path d="M519,324.25a7.66,7.66,0,0,1-.36,2.22,6.64,6.64,0,0,1-1.17,2.21,6.4,6.4,0,0,1-2.11,1.7,6.73,6.73,0,0,1-3.18.69H503.2v-4.7h8.93a2,2,0,0,0,1.57-.62,2.27,2.27,0,0,0,.55-1.54,2,2,0,0,0-.62-1.52,2.15,2.15,0,0,0-1.5-.55H503.2a2,2,0,0,0-1.56.62,2.2,2.2,0,0,0-.55,1.53v6.91a2,2,0,0,0,.62,1.55,2.24,2.24,0,0,0,1.53.55h8.89V338H503.2a7.76,7.76,0,0,1-2.22-.36,6.64,6.64,0,0,1-2.21-1.17,6.52,6.52,0,0,1-2.39-5.29v-6.95a7.8,7.8,0,0,1,.37-2.22,6.47,6.47,0,0,1,3.28-3.91,6.72,6.72,0,0,1,3.17-.69h8.93a7.69,7.69,0,0,1,2.22.37,6.52,6.52,0,0,1,3.92,3.28A6.84,6.84,0,0,1,519,324.25Z"/><path d="M553.35,338h-5V324.37a2,2,0,0,0-.51-1.48,2.07,2.07,0,0,0-1.52-.5h-6.44V338H535V319.89a2.38,2.38,0,0,1,.19-1,2.35,2.35,0,0,1,.53-.78,2.51,2.51,0,0,1,.8-.52,2.48,2.48,0,0,1,1-.2h8.94a7.56,7.56,0,0,1,2.2.37,7.1,7.1,0,0,1,2.25,1.16v-1.53h6.71a7.15,7.15,0,0,1,1.48.17,7,7,0,0,1,1.55.5,6.85,6.85,0,0,1,1.48.89,6,6,0,0,1,1.24,1.31,6.82,6.82,0,0,1,.85,1.78,7.36,7.36,0,0,1,.33,2.29V338h-5V324.37a2.08,2.08,0,0,0-.49-1.48,2,2,0,0,0-1.49-.5H553.1a7.78,7.78,0,0,1,.25,2Z"/><path d="M591.44,331.07a7.47,7.47,0,0,1-.33,2.3,6.6,6.6,0,0,1-.86,1.79,5.7,5.7,0,0,1-1.23,1.31,7.27,7.27,0,0,1-1.48.89,8.09,8.09,0,0,1-1.56.5,7.37,7.37,0,0,1-1.5.16h-8.93a8,8,0,0,1-2.24-.36,6.56,6.56,0,0,1-2.26-1.19,6.64,6.64,0,0,1-1.73-2.15,6.85,6.85,0,0,1-.7-3.25v-6.7a6.79,6.79,0,0,1,.7-3.23,6.64,6.64,0,0,1,1.73-2.15,6.39,6.39,0,0,1,2.26-1.19,8,8,0,0,1,2.24-.37h8.93a7,7,0,0,1,3.24.69,6.41,6.41,0,0,1,2.15,1.72,6.74,6.74,0,0,1,1.19,2.26,7.76,7.76,0,0,1,.38,2.27Zm-5-6.67a2,2,0,0,0-.51-1.52,2.06,2.06,0,0,0-1.49-.49h-8.89a2,2,0,0,0-1.5.5,2,2,0,0,0-.52,1.48v6.7a2,2,0,0,0,.52,1.49,2,2,0,0,0,1.5.51h8.89a2,2,0,0,0,1.51-.51,2.08,2.08,0,0,0,.49-1.49Z"/><path d="M618.23,331.07a7.79,7.79,0,0,1-.32,2.3,6.91,6.91,0,0,1-.86,1.79,6,6,0,0,1-1.24,1.31,7.48,7.48,0,0,1-1.47.89,8.41,8.41,0,0,1-1.57.5,7.21,7.21,0,0,1-1.49.16h-8.93a7.73,7.73,0,0,1-2.29-.32,6.86,6.86,0,0,1-1.78-.87,6,6,0,0,1-1.31-1.25,7.48,7.48,0,0,1-.89-1.47,7.73,7.73,0,0,1-.66-3v-6.7a6.92,6.92,0,0,1,.69-3.23,6.64,6.64,0,0,1,1.73-2.15,6.56,6.56,0,0,1,2.26-1.19,8,8,0,0,1,2.25-.37h8.93v5h-8.89a2.06,2.06,0,0,0-1.51.5,2,2,0,0,0-.51,1.48V331a2.13,2.13,0,0,0,.5,1.53,2,2,0,0,0,1.48.51h8.93a2,2,0,0,0,1.5-.51,2.08,2.08,0,0,0,.5-1.49V308.73h5Z"/><path d="M628,313.21h-5v-4.48h5ZM628,338h-5V317.43h5Z"/><path d="M651,313.45H639.79a2.07,2.07,0,0,0-1.52.51,2,2,0,0,0-.52,1.47V338h-5V315.43a7.61,7.61,0,0,1,.32-2.28,6.7,6.7,0,0,1,.87-1.78,6.05,6.05,0,0,1,1.25-1.32,7.43,7.43,0,0,1,1.47-.88,7.68,7.68,0,0,1,1.56-.51,7.86,7.86,0,0,1,1.48-.16H651ZM658.07,338h-5l0-15.63H639.75v-5h18.36Zm0-24.57h-5v-4.87h5Z"/><path d="M685,324.25a7.66,7.66,0,0,1-.36,2.22,6.64,6.64,0,0,1-1.17,2.21,6.4,6.4,0,0,1-2.11,1.7,6.73,6.73,0,0,1-3.18.69h-8.93v-4.7h8.93a2,2,0,0,0,1.57-.62,2.27,2.27,0,0,0,.55-1.54,2,2,0,0,0-.62-1.52,2.15,2.15,0,0,0-1.5-.55h-8.93a2,2,0,0,0-1.56.62,2.2,2.2,0,0,0-.55,1.53v6.91a2,2,0,0,0,.62,1.55,2.24,2.24,0,0,0,1.53.55h8.89V338h-8.93a7.76,7.76,0,0,1-2.22-.36,6.5,6.5,0,0,1-2.2-1.17,6.6,6.6,0,0,1-1.71-2.12,6.69,6.69,0,0,1-.69-3.17v-6.95a7.8,7.8,0,0,1,.37-2.22,6.47,6.47,0,0,1,3.28-3.91,6.72,6.72,0,0,1,3.17-.69h8.93a7.69,7.69,0,0,1,2.22.37,6.52,6.52,0,0,1,3.92,3.28A6.84,6.84,0,0,1,685,324.25Z"/><path d="M706.31,322.39H695.17a2.07,2.07,0,0,0-1.52.5,2,2,0,0,0-.52,1.48V338h-5V324.37a7.68,7.68,0,0,1,.32-2.29,6.86,6.86,0,0,1,.87-1.78,6,6,0,0,1,1.25-1.31,7,7,0,0,1,1.47-.89,8.11,8.11,0,0,1,3-.67h11.18Z"/><path d="M157.55,384.83h-5V357.52h5Z"/><path d="M185.6,384.83h-4.95V373.4a4.19,4.19,0,0,0-.34-1.74,3.92,3.92,0,0,0-2.24-2.18,4.8,4.8,0,0,0-1.67-.29h-8.67v15.64h-4.95V366.69a2.57,2.57,0,0,1,.19-1,2.48,2.48,0,0,1,.54-.78,2.57,2.57,0,0,1,.8-.52,2.43,2.43,0,0,1,1-.19h11.16a9.94,9.94,0,0,1,2,.21,9.52,9.52,0,0,1,2.06.67,11.18,11.18,0,0,1,1.94,1.18,8.26,8.26,0,0,1,1.64,1.74,8.68,8.68,0,0,1,1.13,2.35,10,10,0,0,1,.42,3Z"/><path d="M208.17,360.26H197a2.13,2.13,0,0,0-1.53.5,2,2,0,0,0-.51,1.48v22.59H190V362.24a7.41,7.41,0,0,1,.32-2.29,6.86,6.86,0,0,1,.87-1.78,6,6,0,0,1,1.24-1.31,7.33,7.33,0,0,1,3-1.39,7.21,7.21,0,0,1,1.49-.16h11.2Zm0,8.93H197v-4.95h11.2Z"/><path d="M233.72,377.87a7.48,7.48,0,0,1-.32,2.3,6.75,6.75,0,0,1-.86,1.79,5.92,5.92,0,0,1-1.23,1.31,7.86,7.86,0,0,1-1.48.89,7.25,7.25,0,0,1-1.56.5,7.42,7.42,0,0,1-1.5.17h-8.93a8.05,8.05,0,0,1-2.25-.37,6.43,6.43,0,0,1-2.25-1.19,6.67,6.67,0,0,1-1.74-2.15,6.94,6.94,0,0,1-.69-3.25v-6.7a6.92,6.92,0,0,1,.69-3.23,6.62,6.62,0,0,1,4-3.34,8,8,0,0,1,2.25-.36h8.93a7.12,7.12,0,0,1,3.24.68,6.44,6.44,0,0,1,2.15,1.73,6.78,6.78,0,0,1,1.19,2.25,7.77,7.77,0,0,1,.37,2.27Zm-4.95-6.66a2,2,0,0,0-.51-1.52,2.08,2.08,0,0,0-1.49-.5h-8.89a2.12,2.12,0,0,0-1.51.5,2,2,0,0,0-.51,1.48v6.7a2,2,0,0,0,.51,1.49,2.07,2.07,0,0,0,1.51.51h8.89a2,2,0,0,0,1.51-.51,2.06,2.06,0,0,0,.49-1.49Z"/><path d="M256,369.19H244.81a2.13,2.13,0,0,0-1.53.5,2,2,0,0,0-.51,1.48v13.66h-5V371.17a7.73,7.73,0,0,1,.32-2.29,6.86,6.86,0,0,1,.87-1.78,6,6,0,0,1,1.25-1.31,7.48,7.48,0,0,1,1.47-.89,8.56,8.56,0,0,1,1.56-.5,7.26,7.26,0,0,1,1.48-.16H256Z"/><path d="M277.58,384.83h-4.95V371.17a2,2,0,0,0-.51-1.48,2.13,2.13,0,0,0-1.53-.5h-6.43v15.64h-5V366.69a2.39,2.39,0,0,1,.2-1,2.3,2.3,0,0,1,.53-.78,2.57,2.57,0,0,1,.8-.52,2.43,2.43,0,0,1,1-.19h8.93a7.59,7.59,0,0,1,2.21.36,7.31,7.31,0,0,1,2.25,1.16v-1.52h6.7a7.21,7.21,0,0,1,1.49.16,8.22,8.22,0,0,1,1.55.5,7.55,7.55,0,0,1,1.48.89,5.92,5.92,0,0,1,1.23,1.31,6.84,6.84,0,0,1,.86,1.78,7.41,7.41,0,0,1,.32,2.29v13.66h-5V371.17a2.08,2.08,0,0,0-.48-1.48,2,2,0,0,0-1.5-.5h-4.45a7.79,7.79,0,0,1,.24,2Z"/><path d="M314.53,378a7.76,7.76,0,0,1-.36,2.22,6.64,6.64,0,0,1-1.17,2.21,6.52,6.52,0,0,1-5.29,2.39h-8.93a7.69,7.69,0,0,1-2.22-.37,6.64,6.64,0,0,1-2.21-1.17,6.4,6.4,0,0,1-1.7-2.11A6.72,6.72,0,0,1,292,378a7.78,7.78,0,0,1,.36-2.23,6.59,6.59,0,0,1,1.17-2.22,6.45,6.45,0,0,1,2.12-1.7,6.72,6.72,0,0,1,3.17-.69h8.93v4.72h-8.93a2,2,0,0,0-1.56.62,2.22,2.22,0,0,0-.55,1.54,1.89,1.89,0,0,0,.63,1.51,2.28,2.28,0,0,0,1.52.54h8.89a2,2,0,0,0,1.56-.61,2.16,2.16,0,0,0,.56-1.52v-6.91a2,2,0,0,0-.61-1.55,2.08,2.08,0,0,0-1.51-.57H296.84v-4.7h10.87a7.66,7.66,0,0,1,2.22.36,6.64,6.64,0,0,1,2.21,1.17,6.45,6.45,0,0,1,1.7,2.12,6.66,6.66,0,0,1,.69,3.17Z"/><path d="M337.4,369.19h-8.64v15.64h-5V369.19h-6.44v-4.95h6.44v-6.72h5v6.72h8.64Z"/><path d="M345.69,360h-5v-4.48h5Zm0,24.82h-5V364.24h5Z"/><path d="M370.37,384.83H356.94a8.11,8.11,0,0,1-2.25-.37,6.43,6.43,0,0,1-2.25-1.19,6.67,6.67,0,0,1-1.74-2.15,6.94,6.94,0,0,1-.69-3.25v-6.7a7.12,7.12,0,0,1,.16-1.48,7.68,7.68,0,0,1,.51-1.56,7,7,0,0,1,.88-1.47,5.74,5.74,0,0,1,1.31-1.24,6.75,6.75,0,0,1,1.79-.86,7.61,7.61,0,0,1,2.28-.32h13.43v4.95H356.94a2,2,0,0,0-1.47.5,2,2,0,0,0-.51,1.52v6.66a2,2,0,0,0,.51,1.49,2.07,2.07,0,0,0,1.51.51h13.39Z"/><path d="M379.49,360h-4.95v-4.48h4.95Zm0,24.82h-4.95V364.24h4.95Z"/><path d="M406.38,371.06a7.65,7.65,0,0,1-.36,2.21,6.49,6.49,0,0,1-3.29,3.92,6.69,6.69,0,0,1-3.17.68h-8.93v-4.7h8.93a2,2,0,0,0,1.56-.62,2.2,2.2,0,0,0,.56-1.53,2,2,0,0,0-.62-1.53,2.22,2.22,0,0,0-1.5-.55h-8.93a2,2,0,0,0-1.56.62,2.2,2.2,0,0,0-.55,1.53V378a1.93,1.93,0,0,0,.62,1.54,2.2,2.2,0,0,0,1.53.55h8.89v4.73h-8.93a7.8,7.8,0,0,1-2.22-.37,6.64,6.64,0,0,1-2.21-1.17,6.53,6.53,0,0,1-1.7-2.11,6.72,6.72,0,0,1-.69-3.17v-6.95a7.66,7.66,0,0,1,.36-2.22,6.76,6.76,0,0,1,1.18-2.21,6.56,6.56,0,0,1,2.11-1.71,6.84,6.84,0,0,1,3.17-.68h8.93a7.66,7.66,0,0,1,2.22.36,6.49,6.49,0,0,1,3.92,3.29A6.78,6.78,0,0,1,406.38,371.06Z"/><path d="M432.53,384.83h-4.95V373.4a4.19,4.19,0,0,0-.34-1.74,3.92,3.92,0,0,0-2.24-2.18,4.8,4.8,0,0,0-1.67-.29h-8.67v15.64h-5V366.69a2.57,2.57,0,0,1,.19-1,2.48,2.48,0,0,1,.54-.78,2.57,2.57,0,0,1,.8-.52,2.43,2.43,0,0,1,1-.19h11.16a9.94,9.94,0,0,1,2,.21,9.52,9.52,0,0,1,2.06.67,10.82,10.82,0,0,1,1.94,1.18A8.26,8.26,0,0,1,431,368a8.68,8.68,0,0,1,1.13,2.35,10,10,0,0,1,.42,3Z"/><path d="M459.69,384.83h-5V373.4a4.35,4.35,0,0,0-.33-1.74,4,4,0,0,0-.9-1.33,3.92,3.92,0,0,0-1.35-.85,4.75,4.75,0,0,0-1.66-.29h-8.67v15.64h-4.95V366.69a2.38,2.38,0,0,1,.19-1,2.63,2.63,0,0,1,.53-.78,2.69,2.69,0,0,1,.8-.52,2.48,2.48,0,0,1,1-.19h11.16a10,10,0,0,1,2,.21,9.44,9.44,0,0,1,2.05.67,10.89,10.89,0,0,1,1.95,1.18,8,8,0,0,1,1.63,1.74,8.42,8.42,0,0,1,1.14,2.35,10,10,0,0,1,.42,3Z"/><path d="M486.18,371.06a7.35,7.35,0,0,1-.37,2.21,6.52,6.52,0,0,1-3.28,3.92,6.72,6.72,0,0,1-3.17.68h-8.93v-4.7h8.93a2,2,0,0,0,1.56-.62,2.2,2.2,0,0,0,.55-1.53,1.93,1.93,0,0,0-.62-1.53,2.19,2.19,0,0,0-1.49-.55h-8.93a2,2,0,0,0-1.56.62,2.2,2.2,0,0,0-.56,1.53V378a2,2,0,0,0,.62,1.54,2.21,2.21,0,0,0,1.53.55h8.9v4.73h-8.93a7.69,7.69,0,0,1-2.22-.37,6.52,6.52,0,0,1-3.92-3.28,6.84,6.84,0,0,1-.68-3.17v-6.95a7.66,7.66,0,0,1,.36-2.22,6.49,6.49,0,0,1,3.29-3.92,6.81,6.81,0,0,1,3.17-.68h8.93a7.76,7.76,0,0,1,2.22.36,6.64,6.64,0,0,1,2.21,1.17,6.57,6.57,0,0,1,1.7,2.12A6.66,6.66,0,0,1,486.18,371.06Z"/><path d="M531.41,373.78a12.06,12.06,0,0,1-.86,4.59,10.67,10.67,0,0,1-6,6,12,12,0,0,1-4.54.85h-6.71a12.16,12.16,0,0,1-4.55-.85,10.7,10.7,0,0,1-6-6,12.06,12.06,0,0,1-.86-4.59v-5.22a12,12,0,0,1,.86-4.58,10.7,10.7,0,0,1,6-6,12,12,0,0,1,4.55-.86H520a11.84,11.84,0,0,1,4.54.86,11,11,0,0,1,3.61,2.37,10.86,10.86,0,0,1,2.38,3.62,12,12,0,0,1,.86,4.58Zm-4.95-5.22a7.28,7.28,0,0,0-.47-2.66,5.84,5.84,0,0,0-3.35-3.35,7.18,7.18,0,0,0-2.62-.46h-6.71a7.16,7.16,0,0,0-2.63.46,5.84,5.84,0,0,0-2.05,1.32,5.76,5.76,0,0,0-1.32,2,7.08,7.08,0,0,0-.47,2.66v5.22a7.08,7.08,0,0,0,.47,2.66,5.76,5.76,0,0,0,1.32,2,5.84,5.84,0,0,0,2.05,1.32,7.16,7.16,0,0,0,2.63.46H520a7.21,7.21,0,0,0,2.64-.46,6,6,0,0,0,2-1.32,5.76,5.76,0,0,0,1.32-2,7.28,7.28,0,0,0,.47-2.66Z"/><path d="M553.5,373.4H535.64v-4.46H553.5Z"/><path d="M593.21,357.52l-4.57,25.59a2.64,2.64,0,0,1-.69,1.32,2.49,2.49,0,0,1-1.29.7,2.55,2.55,0,0,1-1.48-.17,2.42,2.42,0,0,1-1.1-.95L575,369.11,565.93,384a2.25,2.25,0,0,1-.88.85,2.45,2.45,0,0,1-1.21.31,2.4,2.4,0,0,1-1.58-.57,2.37,2.37,0,0,1-.84-1.49l-4.61-25.59h5l3.28,18,7.8-12.45a2.23,2.23,0,0,1,.89-.86,2.53,2.53,0,0,1,1.21-.31,2.5,2.5,0,0,1,2.11,1.17l7.77,12.45,3.28-18Z"/><path d="M617.41,378a7.76,7.76,0,0,1-.36,2.22,6.64,6.64,0,0,1-1.17,2.21,6.48,6.48,0,0,1-5.29,2.39h-8.93a7.8,7.8,0,0,1-2.22-.37,6.47,6.47,0,0,1-3.91-3.28,6.72,6.72,0,0,1-.69-3.17,7.47,7.47,0,0,1,.37-2.23,6.59,6.59,0,0,1,1.17-2.22,6.4,6.4,0,0,1,2.11-1.7,6.72,6.72,0,0,1,3.17-.69h8.93v4.72h-8.93a2,2,0,0,0-1.56.62,2.22,2.22,0,0,0-.55,1.54,1.87,1.87,0,0,0,.64,1.51,2.26,2.26,0,0,0,1.51.54h8.89a2,2,0,0,0,1.57-.61,2.2,2.2,0,0,0,.55-1.52v-6.91a2,2,0,0,0-.6-1.55,2.12,2.12,0,0,0-1.52-.57H599.72v-4.7h10.87a7.66,7.66,0,0,1,2.22.36,6.49,6.49,0,0,1,3.92,3.29,6.78,6.78,0,0,1,.68,3.17Z"/><path d="M630.69,384.83h-2.21a8.08,8.08,0,0,1-2.28-.37,6.56,6.56,0,0,1-2.26-1.19,6.64,6.64,0,0,1-1.73-2.15,7,7,0,0,1-.68-3.25V355.53h5v22.34a1.92,1.92,0,0,0,.57,1.46,2,2,0,0,0,1.43.54h2.21Z"/><path d="M638.89,384.83h-4.95v-29.3h4.95Zm19.16,0h-7.14l-10-9.64a2.29,2.29,0,0,1-.78-1.91,2.72,2.72,0,0,1,.28-1,2.36,2.36,0,0,1,.65-.79l9-7.29h7.92l-11.65,9.39Z"/><path d="M682.32,371.06a7.68,7.68,0,0,1-.37,2.21,6.52,6.52,0,0,1-3.28,3.92,6.72,6.72,0,0,1-3.17.68h-8.93v-4.7h8.93a2,2,0,0,0,1.56-.62,2.2,2.2,0,0,0,.55-1.53,2,2,0,0,0-.62-1.53,2.19,2.19,0,0,0-1.49-.55h-8.93a2,2,0,0,0-1.57.62,2.24,2.24,0,0,0-.55,1.53V378a2,2,0,0,0,.62,1.54,2.2,2.2,0,0,0,1.53.55h8.9v4.73h-8.93a7.69,7.69,0,0,1-2.22-.37,6.52,6.52,0,0,1-3.92-3.28,6.84,6.84,0,0,1-.68-3.17v-6.95a7.66,7.66,0,0,1,.36-2.22,6.52,6.52,0,0,1,3.28-3.92,6.86,6.86,0,0,1,3.18-.68h8.93a7.76,7.76,0,0,1,2.22.36,6.64,6.64,0,0,1,2.21,1.17,6.52,6.52,0,0,1,2.39,5.29Z"/><path d="M703.66,369.19H692.52a2.11,2.11,0,0,0-1.52.5,2,2,0,0,0-.51,1.48v13.66h-5V371.17a7.4,7.4,0,0,1,.33-2.29,6.54,6.54,0,0,1,.86-1.78,6.24,6.24,0,0,1,1.25-1.31,7.27,7.27,0,0,1,1.48-.89,8.09,8.09,0,0,1,1.56-.5,7.24,7.24,0,0,1,1.47-.16h11.18Z"/></g></g></svg>