<svg xmlns="http://www.w3.org/2000/svg" viewBox="0 0 36.58 36.58"><defs><style>.cls-1{fill:#fff;stroke:#fff;stroke-miterlimit:10;}</style></defs><g id="Calque_2" data-name="Calque 2"><g id="Calque_1-2" data-name="Calque 1"><path class="cls-1" d="M18.27,36.08H1.91c-1,0-1.41-.35-1.41-1.4V1.85C.5.9.9.51,1.86.51Q16,.51,30.08.5a2,2,0,0,1,1.57.66c1.27,1.32,2.58,2.61,3.89,3.9a1.66,1.66,0,0,1,.54,1.28q0,14.13,0,28.27c0,1.15-.32,1.47-1.49,1.47ZM2.73,2.72V33.86H5V22c0-1,.37-1.41,1.4-1.41H30.22c1,0,1.4.37,1.4,1.41V33.87h2.24c0-.16,0-.28,0-.41q0-13.26,0-26.54a1,1,0,0,0-.27-.67C32.54,5.14,31.44,4.06,30.35,3c-.1-.1-.23-.25-.34-.25-.94,0-1.87,0-2.84,0v9.71c0,1-.37,1.41-1.4,1.42h-15c-1,0-1.4-.38-1.4-1.42,0-3,0-6,0-9.07V2.72ZM29.41,22.77H7.17V33.85H29.41ZM25,2.73H22.71v.64c0,1.58,0,3.16,0,4.73,0,.87-.39,1.26-1.26,1.27H17.39c-.92,0-1.3-.4-1.3-1.33,0-1.58,0-3.16,0-4.73,0-.2,0-.39,0-.57H11.63V11.6H25Zm-4.46,0H18.3V7.15h2.2Z"/></g></g></svg>