<svg xmlns="http://www.w3.org/2000/svg" viewBox="0 0 197.08 197.08"><defs><style>.cls-1{fill:#a02121;}</style></defs><g id="Calque_2" data-name="Calque 2"><g id="Calque_1-2" data-name="Calque 1"><rect class="cls-1" x="28.86" y="28.86" width="139.35" height="139.35" transform="translate(98.54 -40.82) rotate(45)"/><path d="M92.71,140.51l-10.94.4c.13-4.41.25-8.56.39-13.1l6.45.78c.07-2,.14-3.08.14-4.17,0-23.51,0-47,.06-70.53a14.24,14.24,0,0,1,1.24-5.55c2.63-5.94,5.48-11.79,8.52-18.27,3.37,7.25,6.52,13.94,9.56,20.69a7.73,7.73,0,0,1,.22,3q0,35.41,0,70.83c0,1,.07,2,.11,3.13l6.3.16c-.12,4.27-.23,8.43-.35,13.12l-10.09-1c.66,5.53-1.09,10.19,2,14.72,2.23,3.3.72,8.06-2.39,10.45a8.87,8.87,0,0,1-10.58.16c-3.27-2.44-5-7-2.79-10.31C93.57,150.55,91.94,145.83,92.71,140.51Zm4.52-12.58c0-19.61-.08-38.7-.13-57.95l3.34.11c0,19.29,0,38.38-.08,57.85l4.49-.06c0-1.22.1-2.12.1-3,0-23.1-.07-46.2.06-69.31,0-6.54-4.24-11.13-6.41-16.75-1.69,2.83-2.83,5.66-4.29,8.32a19.17,19.17,0,0,0-2.22,9.67c.1,22.69,0,45.39.06,68.08,0,1,.07,1.94.09,2.49Zm14.25,3.79H85.32v5l26.25.09C111.54,135.26,111.51,133.44,111.48,131.72Zm-9.33,30.4a5.34,5.34,0,0,0,0-7.64,5.4,5.4,0,0,0-7.44.06,5.34,5.34,0,0,0-.23,7.42A5.28,5.28,0,0,0,102.15,162.12Zm-1.85-12.46.31-8.72-4.19-.19.07,8.74Z"/></g></g></svg>