<svg xmlns="http://www.w3.org/2000/svg" viewBox="0 0 197.08 197.08"><defs><style>.cls-1{fill:#a02121;}</style></defs><g id="Calque_2" data-name="Calque 2"><g id="Calque_1-2" data-name="Calque 1"><rect class="cls-1" x="28.86" y="28.86" width="139.35" height="139.35" transform="translate(98.54 -40.82) rotate(45)"/><path d="M53.89,98.3a36.4,36.4,0,0,1-2.6-5.41c-1.42-4.87.21-9.07,3.61-12.57a25.39,25.39,0,0,1,4.71-3.48c.75-.47,1.08-.77,1-1.74A14.46,14.46,0,0,1,70,59.55a12.69,12.69,0,0,1,6.49-.61,1.12,1.12,0,0,0,1.47-.78c1.93-4.19,4.7-7.62,9.09-9.41,6-2.45,11.66,1.33,11.67,7.82,0,27.63-.07,55.27,0,82.91a8.28,8.28,0,0,1-11.8,7.78c-4.3-1.9-7.06-5.24-9-9.37-.3-.63-.53-1-1.34-.84a14,14,0,0,1-16.06-13.12,15.86,15.86,0,0,1,.06-3.23,1.11,1.11,0,0,0-.76-1.39,16.22,16.22,0,0,1-7.4-6.9,11.94,11.94,0,0,1,1.3-13.91C53.85,98.35,54,98.2,53.89,98.3Zm20.86.58a5.76,5.76,0,0,1-4.4,5.51A7.49,7.49,0,0,1,62,102l-3.59,2.14,2.05,1.63a11.82,11.82,0,0,0,7.35,2.33c4.63.07,6.46,1.49,7.64,6l3.47.18c.37-3.69-1.38-6.12-4.23-8,2.53-1.9,4-4.18,3.65-7.39Zm-6-10.73c.48-.06.86-.08,1.22-.15a15.16,15.16,0,0,0,7.73-3.89,6.75,6.75,0,0,1,5.27-2,36.27,36.27,0,0,1,4.87,1.11l2.5-2.35a12.33,12.33,0,0,0-9.55-2c-.5-4.38-1-5.76-2.7-7.32l-2.78,1.9c3.08,5.65.94,9.1-6.84,11Zm7.65,37.41a44.41,44.41,0,0,1,5.61.78,6.17,6.17,0,0,1,4.1,3.47,5.75,5.75,0,0,1-.28,5.2l3.09,1.91a8.4,8.4,0,0,0,1.33-7.08,8.52,8.52,0,0,0-4.39-5.52,15.13,15.13,0,0,0-10.3-1.86ZM90.93,110.9c4.48-3.2,4.89-10.21.91-14.13-2.19-2.15-4.93-3.18-7.93-4l-.25,3.66c2.8.65,5.23,1.77,6.5,4.44,1.35,2.84.42,5.3-1.59,7.5ZM93.61,70c1.42-4.69-2.7-10.29-8.4-11.38L84.37,62c3.42,1.18,5.82,3.06,5.84,6.94a.64.64,0,0,0,.39.46C91.6,69.58,92.61,69.76,93.61,70Z"/><path d="M147,98.08a11.63,11.63,0,0,1,3.17,9.69c-.75,5.24-3.87,8.79-8.36,11.24a1.92,1.92,0,0,0-1.28,2.22c.63,7.57-3.78,13.94-10.71,15.61a14.49,14.49,0,0,1-3.08.37c-1,0-2.07-.11-3-.16-.89,1.52-1.66,3.08-2.66,4.48-2.39,3.32-5.39,5.83-9.61,6.44a8,8,0,0,1-8.88-6.59,12.92,12.92,0,0,1-.14-2q0-41.34,0-82.68c0-4.42,2.41-7.71,6.31-8.56,3-.65,5.72.37,8.16,2.08a18.33,18.33,0,0,1,6.27,7.85,1.15,1.15,0,0,0,1.44.85,14,14,0,0,1,16,13.21,11.55,11.55,0,0,1,0,2.88c-.2,1,.18,1.38,1,1.81A15.42,15.42,0,0,1,149.65,86a11.51,11.51,0,0,1-2.09,11.2l-.5.63A1.89,1.89,0,0,0,147,98.08Zm-20.66.8h-3.57c-.32,3.25,1.18,5.54,3.59,7.36-3.6,3.18-4.8,5.56-4,8l3.44-.16a5.4,5.4,0,0,1,3.51-5.19,16.76,16.76,0,0,1,3.7-.76c1.25-.2,2.54-.18,3.77-.47a9,9,0,0,0,5.57-3.72l-3.24-1.91a7.51,7.51,0,0,1-8.34,2.35A5.78,5.78,0,0,1,126.31,98.88Zm-5.87-20c-5.78,0-8,.49-9.54,2.12l2.3,2.4a27,27,0,0,1,4.13-1.23,7.71,7.71,0,0,1,6.43,2.24,14.61,14.61,0,0,0,8.6,3.77l.27-3.76a8.74,8.74,0,0,1-7-3.39c-1.87-2.49-1.49-5,.22-7.48l-2.89-2A9.19,9.19,0,0,0,120.44,78.87ZM115.28,135c-2.65-4.87,1.94-10.34,9.32-9.08l1-3.48c-4.9-.63-9.13.45-12.67,3.71a7.48,7.48,0,0,0-2.23,4.84,8.09,8.09,0,0,0,1.57,6Zm-2.78-26.62c-4-4-2.6-10.33,4.89-12l-.23-3.51c-5.71,1-10,4.69-10.59,9.1-.51,3.64,1.1,7.62,3.62,8.88Zm4.15-46.59c-.24-1-.54-2.11-.84-3.26-6,1.64-9.81,6.87-8.35,11.44.85-.17,1.7-.41,2.56-.5s.87-.38.86-1a5.53,5.53,0,0,1,2.26-4.59A33.22,33.22,0,0,1,116.65,61.77Z"/></g></g></svg>